%TF.GenerationSoftware,KiCad,Pcbnew,(6.0.5)*%
%TF.CreationDate,2022-06-14T23:06:24-04:00*%
%TF.ProjectId,1bp-m3,3162702d-6d33-42e6-9b69-6361645f7063,A*%
%TF.SameCoordinates,Original*%
%TF.FileFunction,Profile,NP*%
%FSLAX46Y46*%
G04 Gerber Fmt 4.6, Leading zero omitted, Abs format (unit mm)*
G04 Created by KiCad (PCBNEW (6.0.5)) date 2022-06-14 23:06:24*
%MOMM*%
%LPD*%
G01*
G04 APERTURE LIST*
%TA.AperFunction,Profile*%
%ADD10C,0.203200*%
%TD*%
G04 APERTURE END LIST*
D10*
X124500000Y-84250000D02*
X124500000Y-79500000D01*
X126000000Y-78000000D02*
G75*
G03*
X124500000Y-79500000I0J-1500000D01*
G01*
X123000000Y-85750000D02*
G75*
G03*
X124500000Y-84250000I0J1500000D01*
G01*
X117000000Y-85750000D02*
G75*
G03*
X115500000Y-87250000I0J-1500000D01*
G01*
X115500000Y-93000000D02*
G75*
G03*
X117000000Y-94500000I1500000J0D01*
G01*
X125750000Y-98500000D02*
G75*
G03*
X124250000Y-97000000I-1500000J0D01*
G01*
X125750000Y-101250000D02*
G75*
G03*
X127250000Y-102750000I1500000J0D01*
G01*
X124250000Y-97000000D02*
X121000000Y-97000000D01*
X125750000Y-101250000D02*
X125750000Y-98500000D01*
X127250000Y-102750000D02*
X133000000Y-102750000D01*
X136000000Y-94500000D02*
G75*
G03*
X134500000Y-96000000I0J-1500000D01*
G01*
X139500000Y-94500000D02*
G75*
G03*
X140500000Y-93500000I0J1000000D01*
G01*
X139500000Y-94500000D02*
X136000000Y-94500000D01*
X119750000Y-95750000D02*
G75*
G03*
X121000000Y-97000000I1250000J0D01*
G01*
X119750000Y-95750000D02*
G75*
G03*
X118500000Y-94500000I-1250000J0D01*
G01*
X117000000Y-94500000D02*
X118500000Y-94500000D01*
X143000000Y-80750000D02*
G75*
G03*
X142000000Y-79750000I-1000000J0D01*
G01*
X143000000Y-86000000D02*
X140500000Y-88500000D01*
X143000000Y-86000000D02*
X143000000Y-80750000D01*
X136500000Y-78000000D02*
X126000000Y-78000000D01*
X140500000Y-93500000D02*
X140500000Y-88500000D01*
X115500000Y-87250000D02*
X115500000Y-93000000D01*
X133000000Y-102750000D02*
G75*
G03*
X134500000Y-101250000I0J1500000D01*
G01*
X123000000Y-85750000D02*
X117000000Y-85750000D01*
X138500000Y-79750000D02*
X142000000Y-79750000D01*
X134500000Y-101250000D02*
X134500000Y-96000000D01*
X138500000Y-79750000D02*
X136500000Y-78000000D01*
M02*
