%TF.GenerationSoftware,KiCad,Pcbnew,(6.0.5)*%
%TF.CreationDate,2022-06-14T23:06:24-04:00*%
%TF.ProjectId,1bp-m3,3162702d-6d33-42e6-9b69-6361645f7063,A*%
%TF.SameCoordinates,Original*%
%TF.FileFunction,Copper,L2,Bot*%
%TF.FilePolarity,Positive*%
%FSLAX46Y46*%
G04 Gerber Fmt 4.6, Leading zero omitted, Abs format (unit mm)*
G04 Created by KiCad (PCBNEW (6.0.5)) date 2022-06-14 23:06:24*
%MOMM*%
%LPD*%
G01*
G04 APERTURE LIST*
%TA.AperFunction,ComponentPad*%
%ADD10O,3.000000X1.800000*%
%TD*%
%TA.AperFunction,ComponentPad*%
%ADD11O,1.500000X2.000000*%
%TD*%
%TA.AperFunction,ComponentPad*%
%ADD12O,3.000000X3.500000*%
%TD*%
%TA.AperFunction,ViaPad*%
%ADD13C,0.609600*%
%TD*%
%TA.AperFunction,Conductor*%
%ADD14C,0.508000*%
%TD*%
%TA.AperFunction,Conductor*%
%ADD15C,0.304800*%
%TD*%
%TA.AperFunction,Conductor*%
%ADD16C,0.406400*%
%TD*%
G04 APERTURE END LIST*
D10*
X117920000Y-90500000D03*
X123000000Y-90500000D03*
X117920000Y-93040000D03*
X123000000Y-95580000D03*
D11*
X141750000Y-81000000D03*
X139750000Y-81000000D03*
D12*
X136500000Y-81500000D03*
D13*
X126310700Y-95300000D03*
X125400000Y-81800000D03*
X140750000Y-83250000D03*
X137200000Y-88400000D03*
X127500000Y-85750000D03*
X132000000Y-85700000D03*
X120600000Y-93900000D03*
X117000000Y-87500000D03*
X125800000Y-88499998D03*
X131800000Y-94600000D03*
X137250000Y-93500000D03*
X133250000Y-101750000D03*
X123750000Y-86750000D03*
X134800000Y-83400000D03*
X135000000Y-89250000D03*
X118750000Y-87500000D03*
X129750000Y-86000000D03*
X127250000Y-84000000D03*
X128000000Y-80500000D03*
X133500000Y-96750000D03*
X132500000Y-90600000D03*
X138400000Y-82900000D03*
X139600000Y-89000000D03*
X126600000Y-97900000D03*
X132250000Y-84000000D03*
X130300000Y-82200000D03*
X127900000Y-93700000D03*
X132250000Y-81750000D03*
X120600000Y-95200000D03*
X134300000Y-91400000D03*
X121400000Y-89200000D03*
X141750000Y-85750000D03*
X127000000Y-91200000D03*
X139500000Y-93500000D03*
X133250000Y-100500000D03*
X131250000Y-100000000D03*
X127900000Y-100000000D03*
X133300000Y-89800000D03*
X129500000Y-87500000D03*
X128800005Y-93800005D03*
X128250000Y-95250000D03*
D14*
X128600000Y-96802210D02*
X128800000Y-97002210D01*
X128800000Y-97002210D02*
X128800000Y-98800000D01*
X120500000Y-92250000D02*
X120500000Y-88800000D01*
X120500000Y-88800000D02*
X121300000Y-88000000D01*
X128800000Y-98800000D02*
X130000000Y-100000000D01*
X121300000Y-88000000D02*
X124100000Y-88000000D01*
X127100000Y-95300000D02*
X128601105Y-96801105D01*
X125650000Y-89550000D02*
X125650000Y-91050000D01*
D15*
X128601105Y-96801105D02*
X128600000Y-96802210D01*
D14*
X119710000Y-93040000D02*
X120500000Y-92250000D01*
X124100000Y-88000000D02*
X125650000Y-89550000D01*
X130000000Y-100000000D02*
X131250000Y-100000000D01*
X117920000Y-93040000D02*
X119710000Y-93040000D01*
X125650000Y-91050000D02*
X127100000Y-92500000D01*
X127100000Y-92500000D02*
X127100000Y-95300000D01*
D16*
X127400000Y-97650000D02*
X125600000Y-95850000D01*
X127400000Y-99500000D02*
X127400000Y-97650000D01*
X123250000Y-90500000D02*
X123000000Y-90500000D01*
X125600000Y-92850000D02*
X123250000Y-90500000D01*
X125600000Y-95850000D02*
X125600000Y-92850000D01*
X127900000Y-100000000D02*
X127400000Y-99500000D01*
X129500000Y-87500000D02*
X131000000Y-87500000D01*
X131000000Y-87500000D02*
X133300000Y-89800000D01*
X128250000Y-94750000D02*
X128700000Y-94300000D01*
X128700000Y-94300000D02*
X128700000Y-93900010D01*
X128700000Y-93900010D02*
X128800005Y-93800005D01*
X128250000Y-95250000D02*
X128250000Y-94750000D01*
%TA.AperFunction,Conductor*%
G36*
X136330203Y-78527106D02*
G01*
X138157617Y-80126093D01*
X138157877Y-80126322D01*
X138217951Y-80179378D01*
X138247463Y-80193233D01*
X138256488Y-80198256D01*
X138279326Y-80213109D01*
X138279331Y-80213111D01*
X138283816Y-80216028D01*
X138288943Y-80217570D01*
X138288944Y-80217570D01*
X138312438Y-80224634D01*
X138322746Y-80228579D01*
X138344951Y-80239005D01*
X138344955Y-80239006D01*
X138349800Y-80241281D01*
X138355090Y-80242105D01*
X138355091Y-80242105D01*
X138368505Y-80244193D01*
X138382008Y-80246296D01*
X138392093Y-80248586D01*
X138418173Y-80256429D01*
X138418179Y-80256430D01*
X138423304Y-80257971D01*
X138428657Y-80258012D01*
X138428658Y-80258012D01*
X138438161Y-80258084D01*
X138457468Y-80258231D01*
X138459106Y-80258301D01*
X138460386Y-80258500D01*
X138492471Y-80258500D01*
X138493043Y-80258502D01*
X138568957Y-80259080D01*
X138570484Y-80258646D01*
X138572651Y-80258500D01*
X138809032Y-80258500D01*
X138857370Y-80276093D01*
X138883090Y-80320642D01*
X138878047Y-80363565D01*
X138836254Y-80460143D01*
X138796633Y-80649797D01*
X138796300Y-80656152D01*
X138796300Y-81298416D01*
X138796493Y-81300316D01*
X138810541Y-81438609D01*
X138810962Y-81442757D01*
X138868900Y-81627640D01*
X138962832Y-81797096D01*
X139088918Y-81944204D01*
X139091922Y-81946534D01*
X139091924Y-81946536D01*
X139207289Y-82036022D01*
X139242010Y-82062954D01*
X139415853Y-82148495D01*
X139603345Y-82197334D01*
X139692766Y-82202020D01*
X139793024Y-82207275D01*
X139793028Y-82207275D01*
X139796828Y-82207474D01*
X139800597Y-82206904D01*
X139984633Y-82179071D01*
X139984637Y-82179070D01*
X139988399Y-82178501D01*
X139991969Y-82177188D01*
X139991971Y-82177187D01*
X140166656Y-82112915D01*
X140170230Y-82111600D01*
X140334896Y-82009503D01*
X140337661Y-82006888D01*
X140337664Y-82006886D01*
X140472896Y-81879003D01*
X140475669Y-81876381D01*
X140503243Y-81837002D01*
X140584614Y-81720791D01*
X140586799Y-81717671D01*
X140611120Y-81661469D01*
X140662232Y-81543356D01*
X140662232Y-81543355D01*
X140663746Y-81539857D01*
X140675765Y-81482327D01*
X140702872Y-81438609D01*
X140751739Y-81422543D01*
X140799500Y-81441647D01*
X140821135Y-81475218D01*
X140868900Y-81627640D01*
X140962832Y-81797096D01*
X141088918Y-81944204D01*
X141091922Y-81946534D01*
X141091924Y-81946536D01*
X141207289Y-82036022D01*
X141242010Y-82062954D01*
X141415853Y-82148495D01*
X141603345Y-82197334D01*
X141692766Y-82202020D01*
X141793024Y-82207275D01*
X141793028Y-82207275D01*
X141796828Y-82207474D01*
X141800597Y-82206904D01*
X141984633Y-82179071D01*
X141984637Y-82179070D01*
X141988399Y-82178501D01*
X141991969Y-82177188D01*
X141991971Y-82177187D01*
X142166656Y-82112915D01*
X142170230Y-82111600D01*
X142334896Y-82009503D01*
X142337661Y-82006888D01*
X142337664Y-82006886D01*
X142364631Y-81981384D01*
X142411840Y-81960954D01*
X142461136Y-81975650D01*
X142489453Y-82018595D01*
X142491500Y-82036022D01*
X142491500Y-85758225D01*
X142473907Y-85806563D01*
X142469474Y-85811399D01*
X140186681Y-88094192D01*
X140173636Y-88104615D01*
X140167042Y-88108776D01*
X140163496Y-88112791D01*
X140130364Y-88150306D01*
X140127173Y-88153700D01*
X140114618Y-88166255D01*
X140113010Y-88168401D01*
X140113007Y-88168404D01*
X140107122Y-88176256D01*
X140103313Y-88180934D01*
X140074170Y-88213933D01*
X140074168Y-88213935D01*
X140070622Y-88217951D01*
X140065091Y-88229733D01*
X140057194Y-88242875D01*
X140052597Y-88249007D01*
X140052595Y-88249011D01*
X140049384Y-88253295D01*
X140047504Y-88258311D01*
X140032044Y-88299549D01*
X140029700Y-88305111D01*
X140008719Y-88349800D01*
X140007895Y-88355093D01*
X140007893Y-88355099D01*
X140006715Y-88362664D01*
X140002826Y-88377489D01*
X140000136Y-88384666D01*
X139998255Y-88389684D01*
X139997858Y-88395025D01*
X139997858Y-88395026D01*
X139994596Y-88438931D01*
X139993907Y-88444927D01*
X139991500Y-88460386D01*
X139991500Y-88477800D01*
X139991293Y-88483372D01*
X139987461Y-88534941D01*
X139988580Y-88540181D01*
X139989843Y-88546099D01*
X139991500Y-88561798D01*
X139991500Y-93454564D01*
X139990605Y-93466134D01*
X139986309Y-93493724D01*
X139987003Y-93499032D01*
X139987003Y-93499037D01*
X139988290Y-93508879D01*
X139988452Y-93527046D01*
X139980126Y-93600948D01*
X139976380Y-93617364D01*
X139952174Y-93686539D01*
X139945625Y-93705255D01*
X139938319Y-93720426D01*
X139890118Y-93797139D01*
X139888776Y-93799274D01*
X139878276Y-93812439D01*
X139812439Y-93878276D01*
X139799275Y-93888775D01*
X139720427Y-93938319D01*
X139705255Y-93945625D01*
X139617364Y-93976380D01*
X139600950Y-93980126D01*
X139533004Y-93987781D01*
X139513021Y-93987359D01*
X139506276Y-93986309D01*
X139500969Y-93987003D01*
X139500966Y-93987003D01*
X139471435Y-93990865D01*
X139461684Y-93991500D01*
X136049006Y-93991500D01*
X136036530Y-93990458D01*
X136033434Y-93989937D01*
X136012552Y-93986424D01*
X136006145Y-93986346D01*
X136002909Y-93986306D01*
X136002903Y-93986306D01*
X136000000Y-93986271D01*
X135991025Y-93987557D01*
X135985288Y-93988155D01*
X135737276Y-94004410D01*
X135479046Y-94055775D01*
X135476719Y-94056565D01*
X135476715Y-94056566D01*
X135422747Y-94074886D01*
X135229731Y-94140406D01*
X135227526Y-94141493D01*
X135227522Y-94141495D01*
X135192620Y-94158707D01*
X134993595Y-94256855D01*
X134774679Y-94403130D01*
X134772831Y-94404751D01*
X134772828Y-94404753D01*
X134628341Y-94531465D01*
X134576728Y-94576728D01*
X134575110Y-94578573D01*
X134430785Y-94743145D01*
X134403130Y-94774679D01*
X134256855Y-94993595D01*
X134241665Y-95024397D01*
X134142404Y-95225680D01*
X134140406Y-95229731D01*
X134095277Y-95362676D01*
X134063965Y-95454920D01*
X134055775Y-95479046D01*
X134004410Y-95737276D01*
X133998475Y-95827828D01*
X133988760Y-95976043D01*
X133988026Y-95982693D01*
X133987133Y-95988431D01*
X133986309Y-95993724D01*
X133987003Y-95999031D01*
X133987003Y-95999034D01*
X133990865Y-96028565D01*
X133991500Y-96038316D01*
X133991500Y-101204564D01*
X133990605Y-101216134D01*
X133986309Y-101243724D01*
X133987003Y-101249032D01*
X133987003Y-101249035D01*
X133988684Y-101261890D01*
X133989033Y-101278193D01*
X133977010Y-101415617D01*
X133974734Y-101428526D01*
X133933407Y-101582761D01*
X133928923Y-101595079D01*
X133861445Y-101739787D01*
X133854891Y-101751139D01*
X133763305Y-101881937D01*
X133754879Y-101891978D01*
X133641978Y-102004879D01*
X133631937Y-102013305D01*
X133501136Y-102104893D01*
X133489791Y-102111443D01*
X133348453Y-102177350D01*
X133345079Y-102178923D01*
X133332765Y-102183406D01*
X133178518Y-102224737D01*
X133165623Y-102227010D01*
X133034462Y-102238485D01*
X133016340Y-102237876D01*
X133006276Y-102236309D01*
X133000969Y-102237003D01*
X133000966Y-102237003D01*
X132971435Y-102240865D01*
X132961684Y-102241500D01*
X127295436Y-102241500D01*
X127283866Y-102240605D01*
X127256276Y-102236309D01*
X127250968Y-102237003D01*
X127250965Y-102237003D01*
X127238110Y-102238684D01*
X127221807Y-102239033D01*
X127084383Y-102227010D01*
X127071474Y-102224734D01*
X126917239Y-102183407D01*
X126904921Y-102178923D01*
X126901547Y-102177350D01*
X126760209Y-102111443D01*
X126748864Y-102104893D01*
X126618063Y-102013305D01*
X126608022Y-102004879D01*
X126495121Y-101891978D01*
X126486695Y-101881937D01*
X126395109Y-101751139D01*
X126388555Y-101739787D01*
X126321077Y-101595079D01*
X126316593Y-101582762D01*
X126297826Y-101512724D01*
X126275263Y-101428518D01*
X126272990Y-101415623D01*
X126261796Y-101287670D01*
X126262552Y-101268643D01*
X126263093Y-101265428D01*
X126263094Y-101265417D01*
X126263576Y-101262552D01*
X126263729Y-101250000D01*
X126262831Y-101243724D01*
X126259259Y-101218787D01*
X126258500Y-101208126D01*
X126258500Y-98549006D01*
X126259542Y-98536530D01*
X126263093Y-98515420D01*
X126263576Y-98512552D01*
X126263729Y-98500000D01*
X126262443Y-98491025D01*
X126261845Y-98485285D01*
X126245751Y-98239739D01*
X126245590Y-98237276D01*
X126194225Y-97979046D01*
X126109594Y-97729731D01*
X125993145Y-97493595D01*
X125846870Y-97274679D01*
X125810427Y-97233123D01*
X125674890Y-97078573D01*
X125673272Y-97076728D01*
X125475321Y-96903130D01*
X125256405Y-96756855D01*
X125136140Y-96697547D01*
X125022478Y-96641495D01*
X125022474Y-96641493D01*
X125020269Y-96640406D01*
X124846587Y-96581449D01*
X124773285Y-96556566D01*
X124773281Y-96556565D01*
X124770954Y-96555775D01*
X124512724Y-96504410D01*
X124423967Y-96498593D01*
X124376884Y-96477876D01*
X124354133Y-96431741D01*
X124366359Y-96381775D01*
X124372089Y-96374268D01*
X124435197Y-96301542D01*
X124502626Y-96223837D01*
X124608088Y-96041539D01*
X124656632Y-95901747D01*
X124676002Y-95845969D01*
X124676003Y-95845965D01*
X124677176Y-95842587D01*
X124688126Y-95767069D01*
X124706883Y-95637698D01*
X124707396Y-95634161D01*
X124697659Y-95423780D01*
X124648315Y-95219036D01*
X124646834Y-95215778D01*
X124562629Y-95030578D01*
X124562627Y-95030575D01*
X124561146Y-95027317D01*
X124554273Y-95017627D01*
X124441366Y-94858458D01*
X124441365Y-94858457D01*
X124439296Y-94855540D01*
X124287161Y-94709903D01*
X124284158Y-94707964D01*
X124284153Y-94707960D01*
X124143930Y-94617419D01*
X124110233Y-94595661D01*
X123914893Y-94516937D01*
X123708192Y-94476571D01*
X123705487Y-94476439D01*
X123705481Y-94476438D01*
X123703557Y-94476344D01*
X123703544Y-94476344D01*
X123702651Y-94476300D01*
X122347385Y-94476300D01*
X122345604Y-94476470D01*
X122345602Y-94476470D01*
X122193905Y-94490943D01*
X122193900Y-94490944D01*
X122190346Y-94491283D01*
X122186918Y-94492289D01*
X122186916Y-94492289D01*
X122105234Y-94516252D01*
X121988257Y-94550569D01*
X121964183Y-94562968D01*
X121915243Y-94588174D01*
X121801025Y-94647000D01*
X121635405Y-94777096D01*
X121633062Y-94779796D01*
X121633059Y-94779799D01*
X121618259Y-94796855D01*
X121497374Y-94936163D01*
X121391912Y-95118461D01*
X121371160Y-95178221D01*
X121345961Y-95250787D01*
X121322824Y-95317413D01*
X121322311Y-95320953D01*
X121322310Y-95320956D01*
X121316261Y-95362676D01*
X121292604Y-95525839D01*
X121292769Y-95529407D01*
X121292769Y-95529409D01*
X121294929Y-95576074D01*
X121302341Y-95736220D01*
X121351685Y-95940964D01*
X121353165Y-95944219D01*
X121353166Y-95944222D01*
X121409688Y-96068535D01*
X121438854Y-96132683D01*
X121560704Y-96304460D01*
X121563285Y-96306931D01*
X121563287Y-96306933D01*
X121620788Y-96361978D01*
X121643539Y-96408113D01*
X121631312Y-96458079D01*
X121589829Y-96488496D01*
X121568786Y-96491500D01*
X121045436Y-96491500D01*
X121033866Y-96490605D01*
X121006276Y-96486309D01*
X120989480Y-96488505D01*
X120972367Y-96488778D01*
X120862710Y-96477978D01*
X120848253Y-96475102D01*
X120723326Y-96437206D01*
X120709710Y-96431567D01*
X120594573Y-96370024D01*
X120582323Y-96361839D01*
X120481406Y-96279019D01*
X120470981Y-96268594D01*
X120388161Y-96167677D01*
X120379976Y-96155427D01*
X120318433Y-96040290D01*
X120312794Y-96026674D01*
X120274898Y-95901747D01*
X120272022Y-95887289D01*
X120270736Y-95874227D01*
X120262136Y-95786917D01*
X120262816Y-95767069D01*
X120263094Y-95765418D01*
X120263094Y-95765415D01*
X120263576Y-95762552D01*
X120263729Y-95750000D01*
X120263317Y-95747120D01*
X120262634Y-95742345D01*
X120262067Y-95737056D01*
X120245239Y-95501778D01*
X120245238Y-95501772D01*
X120245047Y-95499100D01*
X120191578Y-95253308D01*
X120188004Y-95243724D01*
X120138541Y-95111110D01*
X120103674Y-95017627D01*
X119983123Y-94796855D01*
X119832380Y-94595486D01*
X119654514Y-94417620D01*
X119453145Y-94266877D01*
X119232373Y-94146326D01*
X119208018Y-94137242D01*
X119130322Y-94108263D01*
X119091180Y-94074886D01*
X119082649Y-94024159D01*
X119108722Y-93979816D01*
X119115869Y-93974600D01*
X119118975Y-93973000D01*
X119284595Y-93842904D01*
X119316233Y-93806445D01*
X119395225Y-93715414D01*
X119422626Y-93683837D01*
X119508590Y-93535243D01*
X119548024Y-93502213D01*
X119573682Y-93497700D01*
X119678351Y-93497700D01*
X119687189Y-93498221D01*
X119724540Y-93502642D01*
X119730070Y-93501632D01*
X119730071Y-93501632D01*
X119748747Y-93498221D01*
X119784038Y-93491776D01*
X119786320Y-93491396D01*
X119846102Y-93482408D01*
X119851019Y-93480047D01*
X119851387Y-93479957D01*
X119851667Y-93479861D01*
X119853905Y-93479134D01*
X119854214Y-93479039D01*
X119854566Y-93478895D01*
X119859931Y-93477915D01*
X119864917Y-93475325D01*
X119864920Y-93475324D01*
X119913566Y-93450054D01*
X119915679Y-93448998D01*
X119927045Y-93443540D01*
X119970172Y-93422831D01*
X119974178Y-93419128D01*
X119975101Y-93418577D01*
X119978260Y-93416448D01*
X119982068Y-93414470D01*
X119987194Y-93410091D01*
X120025753Y-93371532D01*
X120027881Y-93369485D01*
X120067109Y-93333223D01*
X120067110Y-93333222D01*
X120071238Y-93329406D01*
X120074063Y-93324543D01*
X120076801Y-93321125D01*
X120082316Y-93314969D01*
X120317847Y-93079438D01*
X121745066Y-93079438D01*
X121771883Y-93301044D01*
X121793568Y-93371532D01*
X121835821Y-93508879D01*
X121837519Y-93514400D01*
X121939901Y-93712759D01*
X122075790Y-93889854D01*
X122240893Y-94040086D01*
X122429990Y-94158707D01*
X122529972Y-94198899D01*
X122633992Y-94240715D01*
X122633996Y-94240716D01*
X122637105Y-94241966D01*
X122709001Y-94256855D01*
X122852999Y-94286676D01*
X122853003Y-94286676D01*
X122855690Y-94287233D01*
X122858432Y-94287391D01*
X122858439Y-94287392D01*
X122911249Y-94290437D01*
X122911264Y-94290437D01*
X122912349Y-94290500D01*
X123056630Y-94290500D01*
X123058284Y-94290352D01*
X123058293Y-94290352D01*
X123219002Y-94276009D01*
X123219004Y-94276009D01*
X123222339Y-94275711D01*
X123225564Y-94274829D01*
X123225568Y-94274828D01*
X123434424Y-94217691D01*
X123434426Y-94217690D01*
X123437651Y-94216808D01*
X123556838Y-94159959D01*
X123636098Y-94122154D01*
X123636101Y-94122153D01*
X123639129Y-94120708D01*
X123641850Y-94118753D01*
X123641853Y-94118751D01*
X123817681Y-93992406D01*
X123817685Y-93992402D01*
X123820405Y-93990448D01*
X123822811Y-93987966D01*
X123923299Y-93884270D01*
X123975749Y-93830146D01*
X123994054Y-93802906D01*
X124023199Y-93759533D01*
X124100250Y-93644868D01*
X124140211Y-93553835D01*
X124188627Y-93443540D01*
X124188628Y-93443538D01*
X124189974Y-93440471D01*
X124242085Y-93223415D01*
X124245418Y-93165617D01*
X124254741Y-93003910D01*
X124254934Y-93000562D01*
X124228117Y-92778956D01*
X124162481Y-92565600D01*
X124136486Y-92515236D01*
X124061633Y-92370213D01*
X124060099Y-92367241D01*
X124054070Y-92359383D01*
X123960236Y-92237096D01*
X123924210Y-92190146D01*
X123759107Y-92039914D01*
X123570010Y-91921293D01*
X123425478Y-91863192D01*
X123366008Y-91839285D01*
X123366004Y-91839284D01*
X123362895Y-91838034D01*
X123257901Y-91816291D01*
X123147001Y-91793324D01*
X123146997Y-91793324D01*
X123144310Y-91792767D01*
X123141568Y-91792609D01*
X123141561Y-91792608D01*
X123088751Y-91789563D01*
X123088736Y-91789563D01*
X123087651Y-91789500D01*
X122943370Y-91789500D01*
X122941716Y-91789648D01*
X122941707Y-91789648D01*
X122780998Y-91803991D01*
X122780996Y-91803991D01*
X122777661Y-91804289D01*
X122774436Y-91805171D01*
X122774432Y-91805172D01*
X122565576Y-91862309D01*
X122565574Y-91862310D01*
X122562349Y-91863192D01*
X122559325Y-91864634D01*
X122559326Y-91864634D01*
X122363902Y-91957846D01*
X122363899Y-91957847D01*
X122360871Y-91959292D01*
X122358150Y-91961247D01*
X122358147Y-91961249D01*
X122182319Y-92087594D01*
X122182315Y-92087598D01*
X122179595Y-92089552D01*
X122177264Y-92091957D01*
X122177261Y-92091960D01*
X122103612Y-92167960D01*
X122024251Y-92249854D01*
X122022383Y-92252633D01*
X122022382Y-92252635D01*
X121994371Y-92294321D01*
X121899750Y-92435132D01*
X121898405Y-92438197D01*
X121898404Y-92438198D01*
X121823933Y-92607849D01*
X121810026Y-92639529D01*
X121757915Y-92856585D01*
X121757722Y-92859925D01*
X121757722Y-92859928D01*
X121747474Y-93037670D01*
X121745066Y-93079438D01*
X120317847Y-93079438D01*
X120801263Y-92596023D01*
X120807881Y-92590141D01*
X120833001Y-92570338D01*
X120837418Y-92566856D01*
X120871776Y-92517143D01*
X120873139Y-92515236D01*
X120905728Y-92471116D01*
X120905731Y-92471110D01*
X120909069Y-92466591D01*
X120910876Y-92461444D01*
X120911072Y-92461122D01*
X120911203Y-92460855D01*
X120912261Y-92458778D01*
X120912421Y-92458475D01*
X120912570Y-92458120D01*
X120915670Y-92453635D01*
X120933901Y-92395990D01*
X120934645Y-92393762D01*
X120942915Y-92370213D01*
X120954672Y-92336733D01*
X120954886Y-92331282D01*
X120955150Y-92330236D01*
X120955879Y-92326494D01*
X120957171Y-92322409D01*
X120957700Y-92315688D01*
X120957700Y-92261135D01*
X120957758Y-92258183D01*
X120958946Y-92227932D01*
X120960075Y-92199207D01*
X120958635Y-92193776D01*
X120958154Y-92189417D01*
X120957700Y-92181167D01*
X120957700Y-90445839D01*
X121292604Y-90445839D01*
X121302341Y-90656220D01*
X121351685Y-90860964D01*
X121353165Y-90864219D01*
X121353166Y-90864222D01*
X121425338Y-91022955D01*
X121438854Y-91052683D01*
X121440924Y-91055601D01*
X121440925Y-91055603D01*
X121490277Y-91125176D01*
X121560704Y-91224460D01*
X121563285Y-91226931D01*
X121563287Y-91226933D01*
X121593316Y-91255679D01*
X121712839Y-91370097D01*
X121715842Y-91372036D01*
X121715847Y-91372040D01*
X121834767Y-91448825D01*
X121889767Y-91484339D01*
X122085107Y-91563063D01*
X122291808Y-91603429D01*
X122294513Y-91603561D01*
X122294519Y-91603562D01*
X122296443Y-91603656D01*
X122296456Y-91603656D01*
X122297349Y-91603700D01*
X123652615Y-91603700D01*
X123654396Y-91603530D01*
X123654398Y-91603530D01*
X123732049Y-91596122D01*
X123781839Y-91609045D01*
X123792365Y-91617808D01*
X125171074Y-92996517D01*
X125192814Y-93043137D01*
X125193100Y-93049691D01*
X125193100Y-95914446D01*
X125201292Y-95939658D01*
X125204045Y-95951125D01*
X125208191Y-95977306D01*
X125210877Y-95982577D01*
X125210878Y-95982581D01*
X125220225Y-96000926D01*
X125224740Y-96011826D01*
X125232930Y-96037032D01*
X125248514Y-96058481D01*
X125254675Y-96068535D01*
X125266708Y-96092151D01*
X125289634Y-96115077D01*
X126971074Y-97796518D01*
X126992814Y-97843138D01*
X126993100Y-97849692D01*
X126993100Y-99564446D01*
X127001292Y-99589658D01*
X127004045Y-99601125D01*
X127008191Y-99627306D01*
X127010877Y-99632577D01*
X127010878Y-99632581D01*
X127020225Y-99650926D01*
X127024740Y-99661826D01*
X127032930Y-99687032D01*
X127048514Y-99708481D01*
X127054675Y-99718535D01*
X127066708Y-99742151D01*
X127378466Y-100053909D01*
X127399857Y-100097332D01*
X127405195Y-100138152D01*
X127407354Y-100143058D01*
X127407354Y-100143059D01*
X127413132Y-100156191D01*
X127463859Y-100271474D01*
X127467301Y-100275569D01*
X127467303Y-100275572D01*
X127519290Y-100337418D01*
X127557583Y-100382973D01*
X127678834Y-100463684D01*
X127683949Y-100465282D01*
X127683951Y-100465283D01*
X127812746Y-100505522D01*
X127817864Y-100507121D01*
X127888293Y-100508412D01*
X127958136Y-100509692D01*
X127958138Y-100509692D01*
X127963498Y-100509790D01*
X127968669Y-100508380D01*
X127968671Y-100508380D01*
X128043552Y-100487964D01*
X128104026Y-100471477D01*
X128116253Y-100463970D01*
X128223589Y-100398066D01*
X128223590Y-100398066D01*
X128228154Y-100395263D01*
X128231746Y-100391295D01*
X128231748Y-100391293D01*
X128307248Y-100307881D01*
X128325901Y-100287274D01*
X128389410Y-100156191D01*
X128413576Y-100012552D01*
X128413729Y-100000000D01*
X128393080Y-99855813D01*
X128343306Y-99746341D01*
X128335011Y-99728098D01*
X128335010Y-99728097D01*
X128332792Y-99723218D01*
X128279894Y-99661826D01*
X128241208Y-99616929D01*
X128241207Y-99616929D01*
X128237713Y-99612873D01*
X128153868Y-99558527D01*
X128119981Y-99536562D01*
X128119980Y-99536562D01*
X128115485Y-99533648D01*
X127981894Y-99493696D01*
X127950267Y-99474824D01*
X127828926Y-99353483D01*
X127807186Y-99306863D01*
X127806900Y-99300309D01*
X127806900Y-97617976D01*
X127806899Y-97617970D01*
X127806899Y-97585553D01*
X127801292Y-97568295D01*
X127798710Y-97560347D01*
X127795956Y-97548875D01*
X127792735Y-97528539D01*
X127792735Y-97528538D01*
X127791809Y-97522694D01*
X127779775Y-97499076D01*
X127775259Y-97488175D01*
X127768897Y-97468594D01*
X127767069Y-97462968D01*
X127763590Y-97458179D01*
X127751490Y-97441524D01*
X127745324Y-97431463D01*
X127735981Y-97413126D01*
X127735980Y-97413125D01*
X127733292Y-97407849D01*
X127710369Y-97384926D01*
X127710366Y-97384922D01*
X126028926Y-95703483D01*
X126007186Y-95656863D01*
X126006900Y-95650309D01*
X126006900Y-92785554D01*
X125998708Y-92760342D01*
X125995955Y-92748873D01*
X125992735Y-92728541D01*
X125991809Y-92722694D01*
X125989123Y-92717423D01*
X125989122Y-92717419D01*
X125979775Y-92699074D01*
X125975260Y-92688174D01*
X125968899Y-92668597D01*
X125967070Y-92662968D01*
X125951486Y-92641519D01*
X125945325Y-92631465D01*
X125935982Y-92613128D01*
X125935981Y-92613127D01*
X125933292Y-92607849D01*
X124531244Y-91205801D01*
X124509504Y-91159181D01*
X124519326Y-91114970D01*
X124606297Y-90964635D01*
X124606297Y-90964634D01*
X124608088Y-90961539D01*
X124651745Y-90835820D01*
X124676002Y-90765969D01*
X124676003Y-90765965D01*
X124677176Y-90762587D01*
X124707396Y-90554161D01*
X124697659Y-90343780D01*
X124648315Y-90139036D01*
X124626586Y-90091245D01*
X124562629Y-89950578D01*
X124562627Y-89950575D01*
X124561146Y-89947317D01*
X124465551Y-89812552D01*
X124441366Y-89778458D01*
X124441365Y-89778457D01*
X124439296Y-89775540D01*
X124287161Y-89629903D01*
X124284158Y-89627964D01*
X124284153Y-89627960D01*
X124140896Y-89535460D01*
X124110233Y-89515661D01*
X123914893Y-89436937D01*
X123708192Y-89396571D01*
X123705487Y-89396439D01*
X123705481Y-89396438D01*
X123703557Y-89396344D01*
X123703544Y-89396344D01*
X123702651Y-89396300D01*
X122347385Y-89396300D01*
X122345604Y-89396470D01*
X122345602Y-89396470D01*
X122193905Y-89410943D01*
X122193900Y-89410944D01*
X122190346Y-89411283D01*
X122186918Y-89412289D01*
X122186916Y-89412289D01*
X122162142Y-89419557D01*
X121988257Y-89470569D01*
X121977726Y-89475993D01*
X121851424Y-89541043D01*
X121801025Y-89567000D01*
X121635405Y-89697096D01*
X121633062Y-89699796D01*
X121633059Y-89699799D01*
X121571505Y-89770734D01*
X121497374Y-89856163D01*
X121391912Y-90038461D01*
X121374961Y-90087274D01*
X121336488Y-90198066D01*
X121322824Y-90237413D01*
X121322311Y-90240953D01*
X121322310Y-90240956D01*
X121312949Y-90305522D01*
X121292604Y-90445839D01*
X120957700Y-90445839D01*
X120957700Y-89020733D01*
X120975293Y-88972395D01*
X120979726Y-88967559D01*
X121467560Y-88479726D01*
X121514180Y-88457986D01*
X121520734Y-88457700D01*
X123879267Y-88457700D01*
X123927605Y-88475293D01*
X123932441Y-88479726D01*
X125170274Y-89717560D01*
X125192014Y-89764180D01*
X125192300Y-89770734D01*
X125192300Y-91018351D01*
X125191779Y-91027189D01*
X125187358Y-91064540D01*
X125188368Y-91070070D01*
X125188368Y-91070071D01*
X125198219Y-91124007D01*
X125198604Y-91126320D01*
X125207592Y-91186102D01*
X125209953Y-91191019D01*
X125210043Y-91191387D01*
X125210139Y-91191667D01*
X125210866Y-91193905D01*
X125210961Y-91194214D01*
X125211105Y-91194566D01*
X125212085Y-91199931D01*
X125214675Y-91204917D01*
X125214676Y-91204920D01*
X125239946Y-91253566D01*
X125241002Y-91255679D01*
X125267169Y-91310172D01*
X125270872Y-91314178D01*
X125271423Y-91315101D01*
X125273552Y-91318260D01*
X125275530Y-91322068D01*
X125279909Y-91327194D01*
X125280950Y-91328235D01*
X125318482Y-91365768D01*
X125320527Y-91367895D01*
X125356779Y-91407112D01*
X125356782Y-91407115D01*
X125360594Y-91411238D01*
X125365450Y-91414059D01*
X125368877Y-91416804D01*
X125375031Y-91422317D01*
X126620274Y-92667560D01*
X126642014Y-92714180D01*
X126642300Y-92720734D01*
X126642300Y-95268351D01*
X126641779Y-95277189D01*
X126637358Y-95314540D01*
X126638368Y-95320070D01*
X126638368Y-95320071D01*
X126648219Y-95374007D01*
X126648604Y-95376320D01*
X126657592Y-95436102D01*
X126659953Y-95441019D01*
X126660043Y-95441387D01*
X126660139Y-95441667D01*
X126660866Y-95443905D01*
X126660961Y-95444214D01*
X126661105Y-95444566D01*
X126662085Y-95449931D01*
X126664675Y-95454917D01*
X126664676Y-95454920D01*
X126689946Y-95503566D01*
X126691002Y-95505679D01*
X126717169Y-95560172D01*
X126720872Y-95564178D01*
X126721423Y-95565101D01*
X126723552Y-95568260D01*
X126725530Y-95572068D01*
X126729909Y-95577194D01*
X126730950Y-95578235D01*
X126768482Y-95615768D01*
X126770527Y-95617895D01*
X126806779Y-95657112D01*
X126806782Y-95657115D01*
X126810594Y-95661238D01*
X126815450Y-95664059D01*
X126818877Y-95666804D01*
X126825031Y-95672317D01*
X128219179Y-97066465D01*
X128225381Y-97073992D01*
X128225530Y-97074278D01*
X128227991Y-97077159D01*
X128228006Y-97077177D01*
X128228588Y-97077858D01*
X128229909Y-97079404D01*
X128320274Y-97169769D01*
X128342014Y-97216389D01*
X128342300Y-97222943D01*
X128342300Y-98768351D01*
X128341779Y-98777189D01*
X128337358Y-98814540D01*
X128338368Y-98820070D01*
X128338368Y-98820071D01*
X128348219Y-98874007D01*
X128348604Y-98876320D01*
X128357592Y-98936102D01*
X128359953Y-98941019D01*
X128360043Y-98941387D01*
X128360139Y-98941667D01*
X128360866Y-98943905D01*
X128360961Y-98944214D01*
X128361105Y-98944566D01*
X128362085Y-98949931D01*
X128364675Y-98954917D01*
X128364676Y-98954920D01*
X128389946Y-99003566D01*
X128391002Y-99005679D01*
X128417169Y-99060172D01*
X128420872Y-99064178D01*
X128421423Y-99065101D01*
X128423552Y-99068260D01*
X128425530Y-99072068D01*
X128429909Y-99077194D01*
X128468468Y-99115753D01*
X128470515Y-99117881D01*
X128510594Y-99161238D01*
X128515457Y-99164063D01*
X128518875Y-99166801D01*
X128525031Y-99172316D01*
X129653977Y-100301263D01*
X129659859Y-100307881D01*
X129683144Y-100337418D01*
X129687764Y-100340611D01*
X129687765Y-100340612D01*
X129732879Y-100371792D01*
X129734801Y-100373166D01*
X129783409Y-100409068D01*
X129788553Y-100410874D01*
X129788875Y-100411070D01*
X129789167Y-100411213D01*
X129791255Y-100412277D01*
X129791529Y-100412422D01*
X129791876Y-100412568D01*
X129796365Y-100415670D01*
X129801726Y-100417365D01*
X129801727Y-100417366D01*
X129854000Y-100433898D01*
X129856240Y-100434646D01*
X129907962Y-100452810D01*
X129907968Y-100452811D01*
X129913267Y-100454672D01*
X129918716Y-100454886D01*
X129919760Y-100455150D01*
X129923511Y-100455881D01*
X129927591Y-100457171D01*
X129932182Y-100457532D01*
X129932836Y-100457584D01*
X129932840Y-100457584D01*
X129934312Y-100457700D01*
X129988865Y-100457700D01*
X129991818Y-100457758D01*
X130050793Y-100460075D01*
X130056229Y-100458634D01*
X130060573Y-100458154D01*
X130068826Y-100457700D01*
X131001037Y-100457700D01*
X131028745Y-100463970D01*
X131028834Y-100463684D01*
X131033949Y-100465282D01*
X131033951Y-100465283D01*
X131162746Y-100505522D01*
X131167864Y-100507121D01*
X131238293Y-100508412D01*
X131308136Y-100509692D01*
X131308138Y-100509692D01*
X131313498Y-100509790D01*
X131318669Y-100508380D01*
X131318671Y-100508380D01*
X131393552Y-100487964D01*
X131454026Y-100471477D01*
X131466253Y-100463970D01*
X131573589Y-100398066D01*
X131573590Y-100398066D01*
X131578154Y-100395263D01*
X131581746Y-100391295D01*
X131581748Y-100391293D01*
X131657248Y-100307881D01*
X131675901Y-100287274D01*
X131739410Y-100156191D01*
X131763576Y-100012552D01*
X131763729Y-100000000D01*
X131743080Y-99855813D01*
X131693306Y-99746341D01*
X131685011Y-99728098D01*
X131685010Y-99728097D01*
X131682792Y-99723218D01*
X131629894Y-99661826D01*
X131591208Y-99616929D01*
X131591207Y-99616929D01*
X131587713Y-99612873D01*
X131503868Y-99558527D01*
X131469981Y-99536562D01*
X131469980Y-99536562D01*
X131465485Y-99533648D01*
X131325934Y-99491914D01*
X131320578Y-99491881D01*
X131320576Y-99491881D01*
X131256124Y-99491487D01*
X131180279Y-99491024D01*
X131040229Y-99531051D01*
X131035696Y-99533911D01*
X131031596Y-99535745D01*
X131000889Y-99542300D01*
X130220734Y-99542300D01*
X130172396Y-99524707D01*
X130167560Y-99520274D01*
X129279726Y-98632440D01*
X129257986Y-98585820D01*
X129257700Y-98579266D01*
X129257700Y-97033863D01*
X129258221Y-97025024D01*
X129261981Y-96993254D01*
X129262642Y-96987671D01*
X129251776Y-96928175D01*
X129251392Y-96925868D01*
X129247769Y-96901765D01*
X129242408Y-96866108D01*
X129240047Y-96861191D01*
X129239957Y-96860823D01*
X129239861Y-96860543D01*
X129239134Y-96858305D01*
X129239039Y-96857996D01*
X129238895Y-96857644D01*
X129237915Y-96852279D01*
X129235325Y-96847293D01*
X129235324Y-96847290D01*
X129210054Y-96798644D01*
X129208998Y-96796531D01*
X129189946Y-96756855D01*
X129182831Y-96742038D01*
X129179128Y-96738032D01*
X129178577Y-96737109D01*
X129176448Y-96733950D01*
X129174470Y-96730142D01*
X129170091Y-96725016D01*
X129131531Y-96686456D01*
X129129484Y-96684328D01*
X129093221Y-96645099D01*
X129089406Y-96640972D01*
X129084546Y-96638149D01*
X129081133Y-96635415D01*
X129074975Y-96629900D01*
X128981924Y-96536848D01*
X128975724Y-96529324D01*
X128975575Y-96529037D01*
X128971196Y-96523911D01*
X128321511Y-95874225D01*
X128299772Y-95827607D01*
X128313086Y-95777920D01*
X128354906Y-95748501D01*
X128399950Y-95736220D01*
X128454026Y-95721477D01*
X128483333Y-95703483D01*
X128573589Y-95648066D01*
X128573590Y-95648066D01*
X128578154Y-95645263D01*
X128581746Y-95641295D01*
X128581748Y-95641293D01*
X128644407Y-95572068D01*
X128675901Y-95537274D01*
X128739410Y-95406191D01*
X128763576Y-95262552D01*
X128763729Y-95250000D01*
X128762831Y-95243724D01*
X128743839Y-95111110D01*
X128743838Y-95111107D01*
X128743080Y-95105813D01*
X128740346Y-95099800D01*
X128685010Y-94978095D01*
X128685008Y-94978092D01*
X128682792Y-94973218D01*
X128682859Y-94973188D01*
X128672170Y-94925359D01*
X128693569Y-94881874D01*
X129033292Y-94542151D01*
X129045325Y-94518535D01*
X129051486Y-94508481D01*
X129067070Y-94487032D01*
X129075260Y-94461826D01*
X129079775Y-94450926D01*
X129089122Y-94432581D01*
X129089123Y-94432577D01*
X129091809Y-94427306D01*
X129095955Y-94401125D01*
X129098708Y-94389658D01*
X129106900Y-94364446D01*
X129106900Y-94247237D01*
X129124493Y-94198899D01*
X129128120Y-94195292D01*
X129128159Y-94195268D01*
X129225906Y-94087279D01*
X129266134Y-94004249D01*
X129287077Y-93961022D01*
X129287077Y-93961021D01*
X129289415Y-93956196D01*
X129313581Y-93812557D01*
X129313734Y-93800005D01*
X129312836Y-93793729D01*
X129293844Y-93661115D01*
X129293843Y-93661112D01*
X129293085Y-93655818D01*
X129264379Y-93592683D01*
X129235016Y-93528103D01*
X129235015Y-93528102D01*
X129232797Y-93523223D01*
X129220438Y-93508879D01*
X129141213Y-93416934D01*
X129141212Y-93416934D01*
X129137718Y-93412878D01*
X129133227Y-93409967D01*
X129019986Y-93336567D01*
X129019985Y-93336567D01*
X129015490Y-93333653D01*
X128875939Y-93291919D01*
X128870583Y-93291886D01*
X128870581Y-93291886D01*
X128806129Y-93291492D01*
X128730284Y-93291029D01*
X128590234Y-93331056D01*
X128467047Y-93408781D01*
X128370627Y-93517956D01*
X128368351Y-93522803D01*
X128368350Y-93522805D01*
X128358172Y-93544484D01*
X128308724Y-93649805D01*
X128286314Y-93793729D01*
X128287008Y-93799037D01*
X128287008Y-93799039D01*
X128292465Y-93840768D01*
X128293100Y-93850518D01*
X128293100Y-94100309D01*
X128275507Y-94148647D01*
X128271074Y-94153483D01*
X127916708Y-94507849D01*
X127914019Y-94513127D01*
X127914018Y-94513128D01*
X127904675Y-94531465D01*
X127898514Y-94541519D01*
X127882930Y-94562968D01*
X127881101Y-94568597D01*
X127874740Y-94588174D01*
X127870225Y-94599074D01*
X127860878Y-94617419D01*
X127860877Y-94617423D01*
X127858191Y-94622694D01*
X127857265Y-94628541D01*
X127854045Y-94648873D01*
X127851292Y-94660342D01*
X127843100Y-94685554D01*
X127843100Y-94914047D01*
X127826154Y-94958833D01*
X127827109Y-94959460D01*
X127824298Y-94963740D01*
X127824265Y-94963826D01*
X127820622Y-94967951D01*
X127758719Y-95099800D01*
X127755813Y-95118461D01*
X127752986Y-95136617D01*
X127728164Y-95181672D01*
X127680189Y-95200232D01*
X127631508Y-95183611D01*
X127625507Y-95178221D01*
X127579726Y-95132440D01*
X127557986Y-95085820D01*
X127557700Y-95079266D01*
X127557700Y-92531653D01*
X127558221Y-92522814D01*
X127561981Y-92491044D01*
X127562642Y-92485461D01*
X127551776Y-92425965D01*
X127551392Y-92423658D01*
X127543244Y-92369459D01*
X127542408Y-92363898D01*
X127540047Y-92358981D01*
X127539957Y-92358613D01*
X127539861Y-92358333D01*
X127539134Y-92356095D01*
X127539039Y-92355786D01*
X127538895Y-92355434D01*
X127537915Y-92350069D01*
X127535325Y-92345083D01*
X127535324Y-92345080D01*
X127510054Y-92296434D01*
X127508998Y-92294321D01*
X127487645Y-92249854D01*
X127482831Y-92239828D01*
X127479128Y-92235822D01*
X127478577Y-92234899D01*
X127476448Y-92231740D01*
X127474470Y-92227932D01*
X127470091Y-92222806D01*
X127431518Y-92184232D01*
X127429473Y-92182105D01*
X127393221Y-92142888D01*
X127393218Y-92142885D01*
X127389406Y-92138762D01*
X127384550Y-92135941D01*
X127381123Y-92133196D01*
X127374969Y-92127683D01*
X126129726Y-90882440D01*
X126107986Y-90835820D01*
X126107700Y-90829266D01*
X126107700Y-89581649D01*
X126108221Y-89572810D01*
X126111981Y-89541043D01*
X126112642Y-89535460D01*
X126111298Y-89528098D01*
X126101781Y-89475993D01*
X126101393Y-89473662D01*
X126100777Y-89469561D01*
X126092408Y-89413898D01*
X126090047Y-89408981D01*
X126089957Y-89408613D01*
X126089861Y-89408333D01*
X126089134Y-89406095D01*
X126089039Y-89405786D01*
X126088895Y-89405434D01*
X126087915Y-89400069D01*
X126085325Y-89395083D01*
X126085324Y-89395080D01*
X126060054Y-89346434D01*
X126058998Y-89344321D01*
X126035264Y-89294895D01*
X126032831Y-89289828D01*
X126029128Y-89285822D01*
X126028577Y-89284899D01*
X126026448Y-89281740D01*
X126024470Y-89277932D01*
X126020091Y-89272806D01*
X125981533Y-89234248D01*
X125979486Y-89232120D01*
X125943223Y-89192891D01*
X125943222Y-89192890D01*
X125939406Y-89188762D01*
X125934543Y-89185937D01*
X125931125Y-89183199D01*
X125924969Y-89177684D01*
X125186217Y-88438931D01*
X124446023Y-87698737D01*
X124440141Y-87692119D01*
X124420334Y-87666994D01*
X124416856Y-87662582D01*
X124388609Y-87643059D01*
X124367121Y-87628208D01*
X124365199Y-87626834D01*
X124348819Y-87614736D01*
X124316591Y-87590932D01*
X124311447Y-87589126D01*
X124311125Y-87588930D01*
X124310833Y-87588787D01*
X124308745Y-87587723D01*
X124308471Y-87587578D01*
X124308124Y-87587432D01*
X124303635Y-87584330D01*
X124298274Y-87582635D01*
X124298273Y-87582634D01*
X124246000Y-87566102D01*
X124243760Y-87565354D01*
X124192038Y-87547190D01*
X124192032Y-87547189D01*
X124186733Y-87545328D01*
X124181284Y-87545114D01*
X124180240Y-87544850D01*
X124176489Y-87544119D01*
X124172409Y-87542829D01*
X124167818Y-87542468D01*
X124167164Y-87542416D01*
X124167160Y-87542416D01*
X124165688Y-87542300D01*
X124111135Y-87542300D01*
X124108183Y-87542242D01*
X124105716Y-87542145D01*
X124049207Y-87539925D01*
X124043771Y-87541366D01*
X124039427Y-87541846D01*
X124031174Y-87542300D01*
X121331650Y-87542300D01*
X121322811Y-87541779D01*
X121285461Y-87537358D01*
X121279931Y-87538368D01*
X121279929Y-87538368D01*
X121257345Y-87542493D01*
X121225965Y-87548224D01*
X121223674Y-87548605D01*
X121163898Y-87557592D01*
X121158981Y-87559953D01*
X121158613Y-87560043D01*
X121158333Y-87560139D01*
X121156095Y-87560866D01*
X121155786Y-87560961D01*
X121155434Y-87561105D01*
X121150069Y-87562085D01*
X121145083Y-87564675D01*
X121145080Y-87564676D01*
X121096434Y-87589946D01*
X121094321Y-87591002D01*
X121039828Y-87617169D01*
X121035822Y-87620872D01*
X121034899Y-87621423D01*
X121031740Y-87623552D01*
X121027932Y-87625530D01*
X121022806Y-87629909D01*
X120984247Y-87668468D01*
X120982119Y-87670515D01*
X120938762Y-87710594D01*
X120935937Y-87715457D01*
X120933199Y-87718875D01*
X120927684Y-87725031D01*
X120198737Y-88453977D01*
X120192119Y-88459859D01*
X120162582Y-88483144D01*
X120159389Y-88487764D01*
X120159388Y-88487765D01*
X120128208Y-88532879D01*
X120126834Y-88534801D01*
X120090932Y-88583409D01*
X120089126Y-88588553D01*
X120088930Y-88588875D01*
X120088787Y-88589167D01*
X120087723Y-88591255D01*
X120087578Y-88591529D01*
X120087432Y-88591876D01*
X120084330Y-88596365D01*
X120082635Y-88601726D01*
X120082634Y-88601727D01*
X120066102Y-88654000D01*
X120065354Y-88656240D01*
X120047190Y-88707962D01*
X120047189Y-88707968D01*
X120045328Y-88713267D01*
X120045114Y-88718716D01*
X120044850Y-88719760D01*
X120044119Y-88723511D01*
X120042829Y-88727591D01*
X120042300Y-88734312D01*
X120042300Y-88788865D01*
X120042242Y-88791817D01*
X120039925Y-88850793D01*
X120041366Y-88856229D01*
X120041846Y-88860573D01*
X120042300Y-88868826D01*
X120042300Y-92029267D01*
X120024707Y-92077605D01*
X120020274Y-92082441D01*
X119599334Y-92503380D01*
X119552714Y-92525120D01*
X119503027Y-92511806D01*
X119481659Y-92488446D01*
X119481146Y-92487317D01*
X119359296Y-92315540D01*
X119207161Y-92169903D01*
X119204158Y-92167964D01*
X119204153Y-92167960D01*
X119079688Y-92087594D01*
X119030233Y-92055661D01*
X118834893Y-91976937D01*
X118628192Y-91936571D01*
X118625487Y-91936439D01*
X118625481Y-91936438D01*
X118623557Y-91936344D01*
X118623544Y-91936344D01*
X118622651Y-91936300D01*
X117267385Y-91936300D01*
X117265604Y-91936470D01*
X117265602Y-91936470D01*
X117113905Y-91950943D01*
X117113900Y-91950944D01*
X117110346Y-91951283D01*
X117106918Y-91952289D01*
X117106916Y-91952289D01*
X117025234Y-91976252D01*
X116908257Y-92010569D01*
X116721025Y-92107000D01*
X116555405Y-92237096D01*
X116553062Y-92239796D01*
X116553059Y-92239799D01*
X116535826Y-92259659D01*
X116417374Y-92396163D01*
X116311912Y-92578461D01*
X116303162Y-92603659D01*
X116250705Y-92754719D01*
X116242824Y-92777413D01*
X116242311Y-92780953D01*
X116242310Y-92780956D01*
X116240785Y-92791473D01*
X116212604Y-92985839D01*
X116212769Y-92989407D01*
X116212769Y-92989409D01*
X116213840Y-93012552D01*
X116222341Y-93196220D01*
X116271685Y-93400964D01*
X116284353Y-93428826D01*
X116298844Y-93460698D01*
X116302835Y-93511983D01*
X116272927Y-93553835D01*
X116223115Y-93566670D01*
X116176705Y-93544484D01*
X116168788Y-93534956D01*
X116168454Y-93534479D01*
X116145107Y-93501136D01*
X116138555Y-93489787D01*
X116135115Y-93482408D01*
X116071077Y-93345079D01*
X116066593Y-93332762D01*
X116065694Y-93329406D01*
X116025263Y-93178518D01*
X116022990Y-93165623D01*
X116015157Y-93076090D01*
X116011796Y-93037670D01*
X116012552Y-93018643D01*
X116013093Y-93015428D01*
X116013094Y-93015417D01*
X116013576Y-93012552D01*
X116013659Y-93005743D01*
X116013694Y-93002901D01*
X116013694Y-93002896D01*
X116013729Y-93000000D01*
X116013231Y-92996517D01*
X116009259Y-92968787D01*
X116008500Y-92958126D01*
X116008500Y-90659389D01*
X116176392Y-90659389D01*
X116199963Y-90796565D01*
X116201738Y-90803187D01*
X116272761Y-90995704D01*
X116275718Y-91001902D01*
X116380631Y-91178245D01*
X116384669Y-91183803D01*
X116519960Y-91338073D01*
X116524945Y-91342804D01*
X116686089Y-91469840D01*
X116691844Y-91473577D01*
X116873444Y-91569122D01*
X116879776Y-91571745D01*
X117075753Y-91632597D01*
X117082463Y-91634023D01*
X117249043Y-91653739D01*
X117253464Y-91654000D01*
X117754341Y-91654000D01*
X117764498Y-91650303D01*
X117767600Y-91644931D01*
X117767600Y-91640741D01*
X118072400Y-91640741D01*
X118076097Y-91650898D01*
X118081469Y-91654000D01*
X118572091Y-91654000D01*
X118575505Y-91653844D01*
X118727768Y-91639852D01*
X118734520Y-91638601D01*
X118932011Y-91582902D01*
X118938419Y-91580443D01*
X119122454Y-91489687D01*
X119128312Y-91486097D01*
X119292721Y-91363327D01*
X119297825Y-91358731D01*
X119437114Y-91208049D01*
X119441289Y-91202609D01*
X119550791Y-91029060D01*
X119553902Y-91022955D01*
X119629942Y-90832355D01*
X119631890Y-90825779D01*
X119663791Y-90665405D01*
X119662147Y-90654721D01*
X119659532Y-90652428D01*
X119659384Y-90652400D01*
X118085659Y-90652400D01*
X118075502Y-90656097D01*
X118072400Y-90661469D01*
X118072400Y-91640741D01*
X117767600Y-91640741D01*
X117767600Y-90665659D01*
X117763903Y-90655502D01*
X117758531Y-90652400D01*
X116188450Y-90652400D01*
X116178293Y-90656097D01*
X116176392Y-90659389D01*
X116008500Y-90659389D01*
X116008500Y-90334595D01*
X116176209Y-90334595D01*
X116177853Y-90345279D01*
X116180468Y-90347572D01*
X116180616Y-90347600D01*
X117754341Y-90347600D01*
X117764498Y-90343903D01*
X117767600Y-90338531D01*
X117767600Y-90334341D01*
X118072400Y-90334341D01*
X118076097Y-90344498D01*
X118081469Y-90347600D01*
X119651550Y-90347600D01*
X119661707Y-90343903D01*
X119663608Y-90340611D01*
X119640037Y-90203435D01*
X119638262Y-90196813D01*
X119567239Y-90004296D01*
X119564282Y-89998098D01*
X119459369Y-89821755D01*
X119455331Y-89816197D01*
X119320040Y-89661927D01*
X119315055Y-89657196D01*
X119153911Y-89530160D01*
X119148156Y-89526423D01*
X118966556Y-89430878D01*
X118960224Y-89428255D01*
X118764247Y-89367403D01*
X118757537Y-89365977D01*
X118590957Y-89346261D01*
X118586536Y-89346000D01*
X118085659Y-89346000D01*
X118075502Y-89349697D01*
X118072400Y-89355069D01*
X118072400Y-90334341D01*
X117767600Y-90334341D01*
X117767600Y-89359259D01*
X117763903Y-89349102D01*
X117758531Y-89346000D01*
X117267909Y-89346000D01*
X117264495Y-89346156D01*
X117112232Y-89360148D01*
X117105480Y-89361399D01*
X116907989Y-89417098D01*
X116901581Y-89419557D01*
X116717546Y-89510313D01*
X116711688Y-89513903D01*
X116547279Y-89636673D01*
X116542175Y-89641269D01*
X116402886Y-89791951D01*
X116398711Y-89797391D01*
X116289209Y-89970940D01*
X116286098Y-89977045D01*
X116210058Y-90167645D01*
X116208110Y-90174221D01*
X116176209Y-90334595D01*
X116008500Y-90334595D01*
X116008500Y-87493724D01*
X128986309Y-87493724D01*
X128987003Y-87499032D01*
X128987003Y-87499034D01*
X128994981Y-87560043D01*
X129005195Y-87638152D01*
X129007354Y-87643058D01*
X129007354Y-87643059D01*
X129043423Y-87725031D01*
X129063859Y-87771474D01*
X129067301Y-87775569D01*
X129067303Y-87775572D01*
X129133096Y-87853841D01*
X129157583Y-87882973D01*
X129278834Y-87963684D01*
X129283949Y-87965282D01*
X129283951Y-87965283D01*
X129412746Y-88005522D01*
X129417864Y-88007121D01*
X129488293Y-88008412D01*
X129558136Y-88009692D01*
X129558138Y-88009692D01*
X129563498Y-88009790D01*
X129568669Y-88008380D01*
X129568671Y-88008380D01*
X129643552Y-87987964D01*
X129704026Y-87971477D01*
X129708591Y-87968674D01*
X129708596Y-87968672D01*
X129791098Y-87918016D01*
X129830445Y-87906900D01*
X130800309Y-87906900D01*
X130848647Y-87924493D01*
X130853483Y-87928926D01*
X132778466Y-89853909D01*
X132799857Y-89897332D01*
X132805195Y-89938152D01*
X132807354Y-89943058D01*
X132807354Y-89943059D01*
X132847970Y-90035365D01*
X132863859Y-90071474D01*
X132867301Y-90075569D01*
X132867303Y-90075572D01*
X132873085Y-90082450D01*
X132957583Y-90182973D01*
X133078834Y-90263684D01*
X133083949Y-90265282D01*
X133083951Y-90265283D01*
X133212746Y-90305522D01*
X133217864Y-90307121D01*
X133288293Y-90308412D01*
X133358136Y-90309692D01*
X133358138Y-90309692D01*
X133363498Y-90309790D01*
X133368669Y-90308380D01*
X133368671Y-90308380D01*
X133443552Y-90287964D01*
X133504026Y-90271477D01*
X133565014Y-90234031D01*
X133623589Y-90198066D01*
X133623590Y-90198066D01*
X133628154Y-90195263D01*
X133631746Y-90191295D01*
X133631748Y-90191293D01*
X133681997Y-90135778D01*
X133725901Y-90087274D01*
X133789410Y-89956191D01*
X133813576Y-89812552D01*
X133813729Y-89800000D01*
X133812577Y-89791951D01*
X133793839Y-89661110D01*
X133793838Y-89661107D01*
X133793080Y-89655813D01*
X133786467Y-89641269D01*
X133735011Y-89528098D01*
X133735010Y-89528097D01*
X133732792Y-89523218D01*
X133726281Y-89515661D01*
X133641208Y-89416929D01*
X133641207Y-89416929D01*
X133637713Y-89412873D01*
X133548533Y-89355069D01*
X133519981Y-89336562D01*
X133519980Y-89336562D01*
X133515485Y-89333648D01*
X133381894Y-89293696D01*
X133350267Y-89274824D01*
X131242151Y-87166708D01*
X131218535Y-87154675D01*
X131208481Y-87148514D01*
X131187032Y-87132930D01*
X131161826Y-87124740D01*
X131150926Y-87120225D01*
X131132581Y-87110878D01*
X131132577Y-87110877D01*
X131127306Y-87108191D01*
X131101125Y-87104045D01*
X131089658Y-87101292D01*
X131064446Y-87093100D01*
X129829447Y-87093100D01*
X129788545Y-87081003D01*
X129719986Y-87036565D01*
X129719984Y-87036564D01*
X129715485Y-87033648D01*
X129575934Y-86991914D01*
X129570578Y-86991881D01*
X129570576Y-86991881D01*
X129506124Y-86991487D01*
X129430279Y-86991024D01*
X129290229Y-87031051D01*
X129167042Y-87108776D01*
X129070622Y-87217951D01*
X129068346Y-87222798D01*
X129068345Y-87222800D01*
X129056922Y-87247130D01*
X129008719Y-87349800D01*
X128986309Y-87493724D01*
X116008500Y-87493724D01*
X116008500Y-87299006D01*
X116009542Y-87286530D01*
X116013093Y-87265420D01*
X116013576Y-87262552D01*
X116013729Y-87250000D01*
X116012830Y-87243724D01*
X116011712Y-87235911D01*
X116011239Y-87218698D01*
X116020504Y-87112789D01*
X116022990Y-87084377D01*
X116025263Y-87071482D01*
X116066594Y-86917235D01*
X116071077Y-86904921D01*
X116138555Y-86760213D01*
X116145109Y-86748861D01*
X116236695Y-86618063D01*
X116245121Y-86608022D01*
X116358022Y-86495121D01*
X116368063Y-86486695D01*
X116378009Y-86479731D01*
X116498864Y-86395107D01*
X116510209Y-86388557D01*
X116654921Y-86321077D01*
X116667235Y-86316594D01*
X116821482Y-86275263D01*
X116834377Y-86272990D01*
X116965538Y-86261515D01*
X116983660Y-86262124D01*
X116993724Y-86263691D01*
X116999031Y-86262997D01*
X116999034Y-86262997D01*
X117028565Y-86259135D01*
X117038316Y-86258500D01*
X122950994Y-86258500D01*
X122963471Y-86259542D01*
X122987448Y-86263576D01*
X122993855Y-86263654D01*
X122997091Y-86263694D01*
X122997097Y-86263694D01*
X123000000Y-86263729D01*
X123008975Y-86262443D01*
X123014712Y-86261845D01*
X123262724Y-86245590D01*
X123520954Y-86194225D01*
X123523281Y-86193435D01*
X123523285Y-86193434D01*
X123596587Y-86168551D01*
X123770269Y-86109594D01*
X123772474Y-86108507D01*
X123772478Y-86108505D01*
X123942460Y-86024679D01*
X124006405Y-85993145D01*
X124225321Y-85846870D01*
X124271283Y-85806563D01*
X124421427Y-85674890D01*
X124423272Y-85673272D01*
X124440936Y-85653130D01*
X124595247Y-85477172D01*
X124595249Y-85477169D01*
X124596870Y-85475321D01*
X124743145Y-85256405D01*
X124859594Y-85020269D01*
X124944225Y-84770954D01*
X124995590Y-84512724D01*
X125010724Y-84281820D01*
X125011605Y-84274266D01*
X125013094Y-84265421D01*
X125013095Y-84265412D01*
X125013576Y-84262552D01*
X125013729Y-84250000D01*
X125012831Y-84243724D01*
X125009259Y-84218787D01*
X125008500Y-84208126D01*
X125008500Y-81814789D01*
X134746000Y-81814789D01*
X134746103Y-81817570D01*
X134760195Y-82007205D01*
X134761017Y-82012701D01*
X134817321Y-82261532D01*
X134818951Y-82266864D01*
X134911414Y-82504633D01*
X134913811Y-82509658D01*
X135040407Y-82731152D01*
X135043516Y-82735762D01*
X135201462Y-82936116D01*
X135205225Y-82940222D01*
X135391042Y-83115022D01*
X135395369Y-83118526D01*
X135604992Y-83263946D01*
X135609783Y-83266768D01*
X135838594Y-83379605D01*
X135843758Y-83381692D01*
X136086733Y-83459469D01*
X136092141Y-83460767D01*
X136337951Y-83500800D01*
X136344547Y-83498498D01*
X136347600Y-83493370D01*
X136347600Y-83486251D01*
X136652400Y-83486251D01*
X136656097Y-83496408D01*
X136659739Y-83498511D01*
X136862937Y-83470857D01*
X136868376Y-83469701D01*
X137113313Y-83398309D01*
X137118518Y-83396363D01*
X137350203Y-83289553D01*
X137355071Y-83286856D01*
X137568434Y-83146968D01*
X137572838Y-83143589D01*
X137763177Y-82973706D01*
X137767045Y-82969701D01*
X137930177Y-82773555D01*
X137933411Y-82769021D01*
X138065756Y-82550923D01*
X138068289Y-82545952D01*
X138166945Y-82310685D01*
X138168710Y-82305411D01*
X138231509Y-82058137D01*
X138232475Y-82052661D01*
X138253811Y-81840777D01*
X138254000Y-81837002D01*
X138254000Y-81665659D01*
X138250303Y-81655502D01*
X138244931Y-81652400D01*
X136665659Y-81652400D01*
X136655502Y-81656097D01*
X136652400Y-81661469D01*
X136652400Y-83486251D01*
X136347600Y-83486251D01*
X136347600Y-81665659D01*
X136343903Y-81655502D01*
X136338531Y-81652400D01*
X134759259Y-81652400D01*
X134749102Y-81656097D01*
X134746000Y-81661469D01*
X134746000Y-81814789D01*
X125008500Y-81814789D01*
X125008500Y-81334341D01*
X134746000Y-81334341D01*
X134749697Y-81344498D01*
X134755069Y-81347600D01*
X136334341Y-81347600D01*
X136344498Y-81343903D01*
X136347600Y-81338531D01*
X136347600Y-81334341D01*
X136652400Y-81334341D01*
X136656097Y-81344498D01*
X136661469Y-81347600D01*
X138240741Y-81347600D01*
X138250898Y-81343903D01*
X138254000Y-81338531D01*
X138254000Y-81185211D01*
X138253897Y-81182430D01*
X138239805Y-80992795D01*
X138238983Y-80987299D01*
X138182679Y-80738468D01*
X138181049Y-80733136D01*
X138088586Y-80495367D01*
X138086189Y-80490342D01*
X137959593Y-80268848D01*
X137956484Y-80264238D01*
X137798538Y-80063884D01*
X137794775Y-80059778D01*
X137608958Y-79884978D01*
X137604631Y-79881474D01*
X137395008Y-79736054D01*
X137390217Y-79733232D01*
X137161406Y-79620395D01*
X137156242Y-79618308D01*
X136913267Y-79540531D01*
X136907859Y-79539233D01*
X136662049Y-79499200D01*
X136655453Y-79501502D01*
X136652400Y-79506630D01*
X136652400Y-81334341D01*
X136347600Y-81334341D01*
X136347600Y-79513749D01*
X136343903Y-79503592D01*
X136340261Y-79501489D01*
X136137063Y-79529143D01*
X136131624Y-79530299D01*
X135886687Y-79601691D01*
X135881482Y-79603637D01*
X135649797Y-79710447D01*
X135644929Y-79713144D01*
X135431566Y-79853032D01*
X135427162Y-79856411D01*
X135236823Y-80026294D01*
X135232955Y-80030299D01*
X135069823Y-80226445D01*
X135066589Y-80230979D01*
X134934244Y-80449077D01*
X134931711Y-80454048D01*
X134833055Y-80689315D01*
X134831290Y-80694589D01*
X134768491Y-80941863D01*
X134767525Y-80947339D01*
X134746189Y-81159223D01*
X134746000Y-81162998D01*
X134746000Y-81334341D01*
X125008500Y-81334341D01*
X125008500Y-79549006D01*
X125009542Y-79536530D01*
X125013093Y-79515420D01*
X125013576Y-79512552D01*
X125013729Y-79500000D01*
X125012830Y-79493724D01*
X125011712Y-79485911D01*
X125011239Y-79468698D01*
X125019496Y-79374315D01*
X125022990Y-79334377D01*
X125025263Y-79321482D01*
X125066594Y-79167235D01*
X125071077Y-79154921D01*
X125138555Y-79010213D01*
X125145109Y-78998861D01*
X125236695Y-78868063D01*
X125245121Y-78858022D01*
X125358022Y-78745121D01*
X125368063Y-78736695D01*
X125378009Y-78729731D01*
X125498864Y-78645107D01*
X125510209Y-78638557D01*
X125654921Y-78571077D01*
X125667235Y-78566594D01*
X125821482Y-78525263D01*
X125834377Y-78522990D01*
X125965538Y-78511515D01*
X125983660Y-78512124D01*
X125993724Y-78513691D01*
X125999031Y-78512997D01*
X125999034Y-78512997D01*
X126028565Y-78509135D01*
X126038316Y-78508500D01*
X136280683Y-78508500D01*
X136330203Y-78527106D01*
G37*
%TD.AperFunction*%
M02*
