%TF.GenerationSoftware,KiCad,Pcbnew,(6.0.5)*%
%TF.CreationDate,2022-06-14T23:06:24-04:00*%
%TF.ProjectId,1bp-m3,3162702d-6d33-42e6-9b69-6361645f7063,A*%
%TF.SameCoordinates,Original*%
%TF.FileFunction,Legend,Bot*%
%TF.FilePolarity,Positive*%
%FSLAX46Y46*%
G04 Gerber Fmt 4.6, Leading zero omitted, Abs format (unit mm)*
G04 Created by KiCad (PCBNEW (6.0.5)) date 2022-06-14 23:06:24*
%MOMM*%
%LPD*%
G01*
G04 APERTURE LIST*
%ADD10C,0.250000*%
%ADD11C,0.125000*%
%ADD12C,0.175000*%
%ADD13C,0.010000*%
G04 APERTURE END LIST*
D10*
X139928571Y-84750000D02*
X140119047Y-84702380D01*
X140404761Y-84702380D01*
X140690476Y-84750000D01*
X140880952Y-84845238D01*
X140976190Y-84940476D01*
X141071428Y-85130952D01*
X141071428Y-85273809D01*
X140976190Y-85464285D01*
X140880952Y-85559523D01*
X140690476Y-85654761D01*
X140404761Y-85702380D01*
X140214285Y-85702380D01*
X139928571Y-85654761D01*
X139833333Y-85607142D01*
X139833333Y-85273809D01*
X140214285Y-85273809D01*
X138976190Y-85178571D02*
X138309523Y-85178571D01*
X138023809Y-85702380D02*
X138976190Y-85702380D01*
X138976190Y-84702380D01*
X138023809Y-84702380D01*
X137166666Y-85702380D02*
X137166666Y-84702380D01*
X136023809Y-85702380D01*
X136023809Y-84702380D01*
X135071428Y-85178571D02*
X134404761Y-85178571D01*
X134119047Y-85702380D02*
X135071428Y-85702380D01*
X135071428Y-84702380D01*
X134119047Y-84702380D01*
X133357142Y-85654761D02*
X133071428Y-85702380D01*
X132595238Y-85702380D01*
X132404761Y-85654761D01*
X132309523Y-85607142D01*
X132214285Y-85511904D01*
X132214285Y-85416666D01*
X132309523Y-85321428D01*
X132404761Y-85273809D01*
X132595238Y-85226190D01*
X132976190Y-85178571D01*
X133166666Y-85130952D01*
X133261904Y-85083333D01*
X133357142Y-84988095D01*
X133357142Y-84892857D01*
X133261904Y-84797619D01*
X133166666Y-84750000D01*
X132976190Y-84702380D01*
X132500000Y-84702380D01*
X132214285Y-84750000D01*
X131357142Y-85702380D02*
X131357142Y-84702380D01*
X130500000Y-85654761D02*
X130214285Y-85702380D01*
X129738095Y-85702380D01*
X129547619Y-85654761D01*
X129452380Y-85607142D01*
X129357142Y-85511904D01*
X129357142Y-85416666D01*
X129452380Y-85321428D01*
X129547619Y-85273809D01*
X129738095Y-85226190D01*
X130119047Y-85178571D01*
X130309523Y-85130952D01*
X130404761Y-85083333D01*
X130500000Y-84988095D01*
X130500000Y-84892857D01*
X130404761Y-84797619D01*
X130309523Y-84750000D01*
X130119047Y-84702380D01*
X129642857Y-84702380D01*
X129357142Y-84750000D01*
X127166666Y-84702380D02*
X125928571Y-84702380D01*
X126595238Y-85083333D01*
X126309523Y-85083333D01*
X126119047Y-85130952D01*
X126023809Y-85178571D01*
X125928571Y-85273809D01*
X125928571Y-85511904D01*
X126023809Y-85607142D01*
X126119047Y-85654761D01*
X126309523Y-85702380D01*
X126880952Y-85702380D01*
X127071428Y-85654761D01*
X127166666Y-85607142D01*
D11*
X131214285Y-93323690D02*
X130964285Y-93823690D01*
X130714285Y-93323690D01*
X130321428Y-93323690D02*
X130250000Y-93323690D01*
X130178571Y-93347500D01*
X130142857Y-93371309D01*
X130107142Y-93418928D01*
X130071428Y-93514166D01*
X130071428Y-93633214D01*
X130107142Y-93728452D01*
X130142857Y-93776071D01*
X130178571Y-93799880D01*
X130250000Y-93823690D01*
X130321428Y-93823690D01*
X130392857Y-93799880D01*
X130428571Y-93776071D01*
X130464285Y-93728452D01*
X130500000Y-93633214D01*
X130500000Y-93514166D01*
X130464285Y-93418928D01*
X130428571Y-93371309D01*
X130392857Y-93347500D01*
X130321428Y-93323690D01*
X129357142Y-93823690D02*
X129785714Y-93823690D01*
X129571428Y-93823690D02*
X129571428Y-93323690D01*
X129642857Y-93395119D01*
X129714285Y-93442738D01*
X129785714Y-93466547D01*
X131535714Y-94176309D02*
X131500000Y-94152500D01*
X131428571Y-94128690D01*
X131250000Y-94128690D01*
X131178571Y-94152500D01*
X131142857Y-94176309D01*
X131107142Y-94223928D01*
X131107142Y-94271547D01*
X131142857Y-94342976D01*
X131571428Y-94628690D01*
X131107142Y-94628690D01*
X130642857Y-94128690D02*
X130571428Y-94128690D01*
X130500000Y-94152500D01*
X130464285Y-94176309D01*
X130428571Y-94223928D01*
X130392857Y-94319166D01*
X130392857Y-94438214D01*
X130428571Y-94533452D01*
X130464285Y-94581071D01*
X130500000Y-94604880D01*
X130571428Y-94628690D01*
X130642857Y-94628690D01*
X130714285Y-94604880D01*
X130750000Y-94581071D01*
X130785714Y-94533452D01*
X130821428Y-94438214D01*
X130821428Y-94319166D01*
X130785714Y-94223928D01*
X130750000Y-94176309D01*
X130714285Y-94152500D01*
X130642857Y-94128690D01*
X130107142Y-94176309D02*
X130071428Y-94152500D01*
X130000000Y-94128690D01*
X129821428Y-94128690D01*
X129750000Y-94152500D01*
X129714285Y-94176309D01*
X129678571Y-94223928D01*
X129678571Y-94271547D01*
X129714285Y-94342976D01*
X130142857Y-94628690D01*
X129678571Y-94628690D01*
X128964285Y-94628690D02*
X129392857Y-94628690D01*
X129178571Y-94628690D02*
X129178571Y-94128690D01*
X129250000Y-94200119D01*
X129321428Y-94247738D01*
X129392857Y-94271547D01*
D10*
X139392857Y-88154761D02*
X139107142Y-88202380D01*
X138630952Y-88202380D01*
X138440476Y-88154761D01*
X138345238Y-88107142D01*
X138250000Y-88011904D01*
X138250000Y-87916666D01*
X138345238Y-87821428D01*
X138440476Y-87773809D01*
X138630952Y-87726190D01*
X139011904Y-87678571D01*
X139202380Y-87630952D01*
X139297619Y-87583333D01*
X139392857Y-87488095D01*
X139392857Y-87392857D01*
X139297619Y-87297619D01*
X139202380Y-87250000D01*
X139011904Y-87202380D01*
X138535714Y-87202380D01*
X138250000Y-87250000D01*
X137678571Y-87202380D02*
X136535714Y-87202380D01*
X137107142Y-88202380D02*
X137107142Y-87202380D01*
X135869047Y-87678571D02*
X135202380Y-87678571D01*
X134916666Y-88202380D02*
X135869047Y-88202380D01*
X135869047Y-87202380D01*
X134916666Y-87202380D01*
X132916666Y-88202380D02*
X133583333Y-87726190D01*
X134059523Y-88202380D02*
X134059523Y-87202380D01*
X133297619Y-87202380D01*
X133107142Y-87250000D01*
X133011904Y-87297619D01*
X132916666Y-87392857D01*
X132916666Y-87535714D01*
X133011904Y-87630952D01*
X133107142Y-87678571D01*
X133297619Y-87726190D01*
X134059523Y-87726190D01*
X132059523Y-87678571D02*
X131392857Y-87678571D01*
X131107142Y-88202380D02*
X132059523Y-88202380D01*
X132059523Y-87202380D01*
X131107142Y-87202380D01*
X129869047Y-87202380D02*
X129488095Y-87202380D01*
X129297619Y-87250000D01*
X129107142Y-87345238D01*
X129011904Y-87535714D01*
X129011904Y-87869047D01*
X129107142Y-88059523D01*
X129297619Y-88154761D01*
X129488095Y-88202380D01*
X129869047Y-88202380D01*
X130059523Y-88154761D01*
X130250000Y-88059523D01*
X130345238Y-87869047D01*
X130345238Y-87535714D01*
X130250000Y-87345238D01*
X130059523Y-87250000D01*
X129869047Y-87202380D01*
X126630952Y-88202380D02*
X126630952Y-87202380D01*
X125964285Y-87916666D01*
X125297619Y-87202380D01*
X125297619Y-88202380D01*
X123964285Y-87202380D02*
X123583333Y-87202380D01*
X123392857Y-87250000D01*
X123202380Y-87345238D01*
X123107142Y-87535714D01*
X123107142Y-87869047D01*
X123202380Y-88059523D01*
X123392857Y-88154761D01*
X123583333Y-88202380D01*
X123964285Y-88202380D01*
X124154761Y-88154761D01*
X124345238Y-88059523D01*
X124440476Y-87869047D01*
X124440476Y-87535714D01*
X124345238Y-87345238D01*
X124154761Y-87250000D01*
X123964285Y-87202380D01*
X122250000Y-88202380D02*
X122250000Y-87202380D01*
X121773809Y-87202380D01*
X121488095Y-87250000D01*
X121297619Y-87345238D01*
X121202380Y-87440476D01*
X121107142Y-87630952D01*
X121107142Y-87773809D01*
X121202380Y-87964285D01*
X121297619Y-88059523D01*
X121488095Y-88154761D01*
X121773809Y-88202380D01*
X122250000Y-88202380D01*
D12*
X138648154Y-90897380D02*
X138648154Y-89897380D01*
X138410059Y-89897380D01*
X138267202Y-89945000D01*
X138171964Y-90040238D01*
X138124345Y-90135476D01*
X138076726Y-90325952D01*
X138076726Y-90468809D01*
X138124345Y-90659285D01*
X138171964Y-90754523D01*
X138267202Y-90849761D01*
X138410059Y-90897380D01*
X138648154Y-90897380D01*
X137267202Y-90849761D02*
X137362440Y-90897380D01*
X137552916Y-90897380D01*
X137648154Y-90849761D01*
X137695773Y-90754523D01*
X137695773Y-90373571D01*
X137648154Y-90278333D01*
X137552916Y-90230714D01*
X137362440Y-90230714D01*
X137267202Y-90278333D01*
X137219583Y-90373571D01*
X137219583Y-90468809D01*
X137695773Y-90564047D01*
X136838630Y-90849761D02*
X136743392Y-90897380D01*
X136552916Y-90897380D01*
X136457678Y-90849761D01*
X136410059Y-90754523D01*
X136410059Y-90706904D01*
X136457678Y-90611666D01*
X136552916Y-90564047D01*
X136695773Y-90564047D01*
X136791011Y-90516428D01*
X136838630Y-90421190D01*
X136838630Y-90373571D01*
X136791011Y-90278333D01*
X136695773Y-90230714D01*
X136552916Y-90230714D01*
X136457678Y-90278333D01*
X135981488Y-90897380D02*
X135981488Y-90230714D01*
X135981488Y-89897380D02*
X136029107Y-89945000D01*
X135981488Y-89992619D01*
X135933869Y-89945000D01*
X135981488Y-89897380D01*
X135981488Y-89992619D01*
X135076726Y-90230714D02*
X135076726Y-91040238D01*
X135124345Y-91135476D01*
X135171964Y-91183095D01*
X135267202Y-91230714D01*
X135410059Y-91230714D01*
X135505297Y-91183095D01*
X135076726Y-90849761D02*
X135171964Y-90897380D01*
X135362440Y-90897380D01*
X135457678Y-90849761D01*
X135505297Y-90802142D01*
X135552916Y-90706904D01*
X135552916Y-90421190D01*
X135505297Y-90325952D01*
X135457678Y-90278333D01*
X135362440Y-90230714D01*
X135171964Y-90230714D01*
X135076726Y-90278333D01*
X134600535Y-90230714D02*
X134600535Y-90897380D01*
X134600535Y-90325952D02*
X134552916Y-90278333D01*
X134457678Y-90230714D01*
X134314821Y-90230714D01*
X134219583Y-90278333D01*
X134171964Y-90373571D01*
X134171964Y-90897380D01*
X133314821Y-90849761D02*
X133410059Y-90897380D01*
X133600535Y-90897380D01*
X133695773Y-90849761D01*
X133743392Y-90754523D01*
X133743392Y-90373571D01*
X133695773Y-90278333D01*
X133600535Y-90230714D01*
X133410059Y-90230714D01*
X133314821Y-90278333D01*
X133267202Y-90373571D01*
X133267202Y-90468809D01*
X133743392Y-90564047D01*
X132410059Y-90897380D02*
X132410059Y-89897380D01*
X132410059Y-90849761D02*
X132505297Y-90897380D01*
X132695773Y-90897380D01*
X132791011Y-90849761D01*
X132838630Y-90802142D01*
X132886250Y-90706904D01*
X132886250Y-90421190D01*
X132838630Y-90325952D01*
X132791011Y-90278333D01*
X132695773Y-90230714D01*
X132505297Y-90230714D01*
X132410059Y-90278333D01*
X130838630Y-90373571D02*
X130695773Y-90421190D01*
X130648154Y-90468809D01*
X130600535Y-90564047D01*
X130600535Y-90706904D01*
X130648154Y-90802142D01*
X130695773Y-90849761D01*
X130791011Y-90897380D01*
X131171964Y-90897380D01*
X131171964Y-89897380D01*
X130838630Y-89897380D01*
X130743392Y-89945000D01*
X130695773Y-89992619D01*
X130648154Y-90087857D01*
X130648154Y-90183095D01*
X130695773Y-90278333D01*
X130743392Y-90325952D01*
X130838630Y-90373571D01*
X131171964Y-90373571D01*
X130267202Y-90230714D02*
X130029107Y-90897380D01*
X129791011Y-90230714D02*
X130029107Y-90897380D01*
X130124345Y-91135476D01*
X130171964Y-91183095D01*
X130267202Y-91230714D01*
X129410059Y-90802142D02*
X129362440Y-90849761D01*
X129410059Y-90897380D01*
X129457678Y-90849761D01*
X129410059Y-90802142D01*
X129410059Y-90897380D01*
X129410059Y-90278333D02*
X129362440Y-90325952D01*
X129410059Y-90373571D01*
X129457678Y-90325952D01*
X129410059Y-90278333D01*
X129410059Y-90373571D01*
X138171964Y-92507380D02*
X138648154Y-92507380D01*
X138648154Y-91507380D01*
X137410059Y-92507380D02*
X137410059Y-91983571D01*
X137457678Y-91888333D01*
X137552916Y-91840714D01*
X137743392Y-91840714D01*
X137838630Y-91888333D01*
X137410059Y-92459761D02*
X137505297Y-92507380D01*
X137743392Y-92507380D01*
X137838630Y-92459761D01*
X137886250Y-92364523D01*
X137886250Y-92269285D01*
X137838630Y-92174047D01*
X137743392Y-92126428D01*
X137505297Y-92126428D01*
X137410059Y-92078809D01*
X137076726Y-91840714D02*
X136695773Y-91840714D01*
X136933869Y-91507380D02*
X136933869Y-92364523D01*
X136886250Y-92459761D01*
X136791011Y-92507380D01*
X136695773Y-92507380D01*
X135981488Y-92459761D02*
X136076726Y-92507380D01*
X136267202Y-92507380D01*
X136362440Y-92459761D01*
X136410059Y-92364523D01*
X136410059Y-91983571D01*
X136362440Y-91888333D01*
X136267202Y-91840714D01*
X136076726Y-91840714D01*
X135981488Y-91888333D01*
X135933869Y-91983571D01*
X135933869Y-92078809D01*
X136410059Y-92174047D01*
X135648154Y-91507380D02*
X135076726Y-91507380D01*
X135362440Y-92507380D02*
X135362440Y-91507380D01*
X134600535Y-92507380D02*
X134695773Y-92459761D01*
X134743392Y-92412142D01*
X134791011Y-92316904D01*
X134791011Y-92031190D01*
X134743392Y-91935952D01*
X134695773Y-91888333D01*
X134600535Y-91840714D01*
X134457678Y-91840714D01*
X134362440Y-91888333D01*
X134314821Y-91935952D01*
X134267202Y-92031190D01*
X134267202Y-92316904D01*
X134314821Y-92412142D01*
X134362440Y-92459761D01*
X134457678Y-92507380D01*
X134600535Y-92507380D01*
X133981488Y-91507380D02*
X133410059Y-91507380D01*
X133695773Y-92507380D02*
X133695773Y-91507380D01*
X133076726Y-92507380D02*
X133076726Y-91507380D01*
X132648154Y-92507380D02*
X132648154Y-91983571D01*
X132695773Y-91888333D01*
X132791011Y-91840714D01*
X132933869Y-91840714D01*
X133029107Y-91888333D01*
X133076726Y-91935952D01*
X131791011Y-92459761D02*
X131886250Y-92507380D01*
X132076726Y-92507380D01*
X132171964Y-92459761D01*
X132219583Y-92364523D01*
X132219583Y-91983571D01*
X132171964Y-91888333D01*
X132076726Y-91840714D01*
X131886250Y-91840714D01*
X131791011Y-91888333D01*
X131743392Y-91983571D01*
X131743392Y-92078809D01*
X132219583Y-92174047D01*
X130791011Y-91555000D02*
X130886250Y-91507380D01*
X131029107Y-91507380D01*
X131171964Y-91555000D01*
X131267202Y-91650238D01*
X131314821Y-91745476D01*
X131362440Y-91935952D01*
X131362440Y-92078809D01*
X131314821Y-92269285D01*
X131267202Y-92364523D01*
X131171964Y-92459761D01*
X131029107Y-92507380D01*
X130933869Y-92507380D01*
X130791011Y-92459761D01*
X130743392Y-92412142D01*
X130743392Y-92078809D01*
X130933869Y-92078809D01*
X129886250Y-92507380D02*
X129886250Y-91983571D01*
X129933869Y-91888333D01*
X130029107Y-91840714D01*
X130219583Y-91840714D01*
X130314821Y-91888333D01*
X129886250Y-92459761D02*
X129981488Y-92507380D01*
X130219583Y-92507380D01*
X130314821Y-92459761D01*
X130362440Y-92364523D01*
X130362440Y-92269285D01*
X130314821Y-92174047D01*
X130219583Y-92126428D01*
X129981488Y-92126428D01*
X129886250Y-92078809D01*
X129410059Y-92507380D02*
X129410059Y-91840714D01*
X129410059Y-91935952D02*
X129362440Y-91888333D01*
X129267202Y-91840714D01*
X129124345Y-91840714D01*
X129029107Y-91888333D01*
X128981488Y-91983571D01*
X128981488Y-92507380D01*
X128981488Y-91983571D02*
X128933869Y-91888333D01*
X128838630Y-91840714D01*
X128695773Y-91840714D01*
X128600535Y-91888333D01*
X128552916Y-91983571D01*
X128552916Y-92507380D01*
X127695773Y-92459761D02*
X127791011Y-92507380D01*
X127981488Y-92507380D01*
X128076726Y-92459761D01*
X128124345Y-92364523D01*
X128124345Y-91983571D01*
X128076726Y-91888333D01*
X127981488Y-91840714D01*
X127791011Y-91840714D01*
X127695773Y-91888333D01*
X127648154Y-91983571D01*
X127648154Y-92078809D01*
X128124345Y-92174047D01*
D11*
X134299702Y-79421190D02*
X134299702Y-78921190D01*
X134085416Y-79421190D02*
X134085416Y-79159285D01*
X134109226Y-79111666D01*
X134156845Y-79087857D01*
X134228273Y-79087857D01*
X134275892Y-79111666D01*
X134299702Y-79135476D01*
X133918750Y-79087857D02*
X133728273Y-79087857D01*
X133847321Y-78921190D02*
X133847321Y-79349761D01*
X133823511Y-79397380D01*
X133775892Y-79421190D01*
X133728273Y-79421190D01*
X133633035Y-79087857D02*
X133442559Y-79087857D01*
X133561607Y-78921190D02*
X133561607Y-79349761D01*
X133537797Y-79397380D01*
X133490178Y-79421190D01*
X133442559Y-79421190D01*
X133275892Y-79087857D02*
X133275892Y-79587857D01*
X133275892Y-79111666D02*
X133228273Y-79087857D01*
X133133035Y-79087857D01*
X133085416Y-79111666D01*
X133061607Y-79135476D01*
X133037797Y-79183095D01*
X133037797Y-79325952D01*
X133061607Y-79373571D01*
X133085416Y-79397380D01*
X133133035Y-79421190D01*
X133228273Y-79421190D01*
X133275892Y-79397380D01*
X132847321Y-79397380D02*
X132799702Y-79421190D01*
X132704464Y-79421190D01*
X132656845Y-79397380D01*
X132633035Y-79349761D01*
X132633035Y-79325952D01*
X132656845Y-79278333D01*
X132704464Y-79254523D01*
X132775892Y-79254523D01*
X132823511Y-79230714D01*
X132847321Y-79183095D01*
X132847321Y-79159285D01*
X132823511Y-79111666D01*
X132775892Y-79087857D01*
X132704464Y-79087857D01*
X132656845Y-79111666D01*
X132418750Y-79373571D02*
X132394940Y-79397380D01*
X132418750Y-79421190D01*
X132442559Y-79397380D01*
X132418750Y-79373571D01*
X132418750Y-79421190D01*
X132418750Y-79111666D02*
X132394940Y-79135476D01*
X132418750Y-79159285D01*
X132442559Y-79135476D01*
X132418750Y-79111666D01*
X132418750Y-79159285D01*
X131823511Y-78897380D02*
X132252083Y-79540238D01*
X131299702Y-78897380D02*
X131728273Y-79540238D01*
X130918750Y-79087857D02*
X130918750Y-79492619D01*
X130942559Y-79540238D01*
X130966369Y-79564047D01*
X131013988Y-79587857D01*
X131085416Y-79587857D01*
X131133035Y-79564047D01*
X130918750Y-79397380D02*
X130966369Y-79421190D01*
X131061607Y-79421190D01*
X131109226Y-79397380D01*
X131133035Y-79373571D01*
X131156845Y-79325952D01*
X131156845Y-79183095D01*
X131133035Y-79135476D01*
X131109226Y-79111666D01*
X131061607Y-79087857D01*
X130966369Y-79087857D01*
X130918750Y-79111666D01*
X130680654Y-79421190D02*
X130680654Y-79087857D01*
X130680654Y-78921190D02*
X130704464Y-78945000D01*
X130680654Y-78968809D01*
X130656845Y-78945000D01*
X130680654Y-78921190D01*
X130680654Y-78968809D01*
X130513988Y-79087857D02*
X130323511Y-79087857D01*
X130442559Y-78921190D02*
X130442559Y-79349761D01*
X130418750Y-79397380D01*
X130371130Y-79421190D01*
X130323511Y-79421190D01*
X130156845Y-79421190D02*
X130156845Y-78921190D01*
X129942559Y-79421190D02*
X129942559Y-79159285D01*
X129966369Y-79111666D01*
X130013988Y-79087857D01*
X130085416Y-79087857D01*
X130133035Y-79111666D01*
X130156845Y-79135476D01*
X129490178Y-79087857D02*
X129490178Y-79421190D01*
X129704464Y-79087857D02*
X129704464Y-79349761D01*
X129680654Y-79397380D01*
X129633035Y-79421190D01*
X129561607Y-79421190D01*
X129513988Y-79397380D01*
X129490178Y-79373571D01*
X129252083Y-79421190D02*
X129252083Y-78921190D01*
X129252083Y-79111666D02*
X129204464Y-79087857D01*
X129109226Y-79087857D01*
X129061607Y-79111666D01*
X129037797Y-79135476D01*
X129013988Y-79183095D01*
X129013988Y-79325952D01*
X129037797Y-79373571D01*
X129061607Y-79397380D01*
X129109226Y-79421190D01*
X129204464Y-79421190D01*
X129252083Y-79397380D01*
X128799702Y-79373571D02*
X128775892Y-79397380D01*
X128799702Y-79421190D01*
X128823511Y-79397380D01*
X128799702Y-79373571D01*
X128799702Y-79421190D01*
X128347321Y-79397380D02*
X128394940Y-79421190D01*
X128490178Y-79421190D01*
X128537797Y-79397380D01*
X128561607Y-79373571D01*
X128585416Y-79325952D01*
X128585416Y-79183095D01*
X128561607Y-79135476D01*
X128537797Y-79111666D01*
X128490178Y-79087857D01*
X128394940Y-79087857D01*
X128347321Y-79111666D01*
X128061607Y-79421190D02*
X128109226Y-79397380D01*
X128133035Y-79373571D01*
X128156845Y-79325952D01*
X128156845Y-79183095D01*
X128133035Y-79135476D01*
X128109226Y-79111666D01*
X128061607Y-79087857D01*
X127990178Y-79087857D01*
X127942559Y-79111666D01*
X127918750Y-79135476D01*
X127894940Y-79183095D01*
X127894940Y-79325952D01*
X127918750Y-79373571D01*
X127942559Y-79397380D01*
X127990178Y-79421190D01*
X128061607Y-79421190D01*
X127680654Y-79421190D02*
X127680654Y-79087857D01*
X127680654Y-79135476D02*
X127656845Y-79111666D01*
X127609226Y-79087857D01*
X127537797Y-79087857D01*
X127490178Y-79111666D01*
X127466369Y-79159285D01*
X127466369Y-79421190D01*
X127466369Y-79159285D02*
X127442559Y-79111666D01*
X127394940Y-79087857D01*
X127323511Y-79087857D01*
X127275892Y-79111666D01*
X127252083Y-79159285D01*
X127252083Y-79421190D01*
X126656845Y-78897380D02*
X127085416Y-79540238D01*
X134061607Y-80226190D02*
X134299702Y-80226190D01*
X134299702Y-79726190D01*
X133680654Y-80226190D02*
X133680654Y-79964285D01*
X133704464Y-79916666D01*
X133752083Y-79892857D01*
X133847321Y-79892857D01*
X133894940Y-79916666D01*
X133680654Y-80202380D02*
X133728273Y-80226190D01*
X133847321Y-80226190D01*
X133894940Y-80202380D01*
X133918750Y-80154761D01*
X133918750Y-80107142D01*
X133894940Y-80059523D01*
X133847321Y-80035714D01*
X133728273Y-80035714D01*
X133680654Y-80011904D01*
X133513988Y-79892857D02*
X133323511Y-79892857D01*
X133442559Y-79726190D02*
X133442559Y-80154761D01*
X133418750Y-80202380D01*
X133371130Y-80226190D01*
X133323511Y-80226190D01*
X132966369Y-80202380D02*
X133013988Y-80226190D01*
X133109226Y-80226190D01*
X133156845Y-80202380D01*
X133180654Y-80154761D01*
X133180654Y-79964285D01*
X133156845Y-79916666D01*
X133109226Y-79892857D01*
X133013988Y-79892857D01*
X132966369Y-79916666D01*
X132942559Y-79964285D01*
X132942559Y-80011904D01*
X133180654Y-80059523D01*
X132799702Y-79726190D02*
X132513988Y-79726190D01*
X132656845Y-80226190D02*
X132656845Y-79726190D01*
X132275892Y-80226190D02*
X132323511Y-80202380D01*
X132347321Y-80178571D01*
X132371130Y-80130952D01*
X132371130Y-79988095D01*
X132347321Y-79940476D01*
X132323511Y-79916666D01*
X132275892Y-79892857D01*
X132204464Y-79892857D01*
X132156845Y-79916666D01*
X132133035Y-79940476D01*
X132109226Y-79988095D01*
X132109226Y-80130952D01*
X132133035Y-80178571D01*
X132156845Y-80202380D01*
X132204464Y-80226190D01*
X132275892Y-80226190D01*
X131966369Y-79726190D02*
X131680654Y-79726190D01*
X131823511Y-80226190D02*
X131823511Y-79726190D01*
X131513988Y-80226190D02*
X131513988Y-79726190D01*
X131299702Y-80226190D02*
X131299702Y-79964285D01*
X131323511Y-79916666D01*
X131371130Y-79892857D01*
X131442559Y-79892857D01*
X131490178Y-79916666D01*
X131513988Y-79940476D01*
X130871130Y-80202380D02*
X130918750Y-80226190D01*
X131013988Y-80226190D01*
X131061607Y-80202380D01*
X131085416Y-80154761D01*
X131085416Y-79964285D01*
X131061607Y-79916666D01*
X131013988Y-79892857D01*
X130918750Y-79892857D01*
X130871130Y-79916666D01*
X130847321Y-79964285D01*
X130847321Y-80011904D01*
X131085416Y-80059523D01*
X130371130Y-79750000D02*
X130418750Y-79726190D01*
X130490178Y-79726190D01*
X130561607Y-79750000D01*
X130609226Y-79797619D01*
X130633035Y-79845238D01*
X130656845Y-79940476D01*
X130656845Y-80011904D01*
X130633035Y-80107142D01*
X130609226Y-80154761D01*
X130561607Y-80202380D01*
X130490178Y-80226190D01*
X130442559Y-80226190D01*
X130371130Y-80202380D01*
X130347321Y-80178571D01*
X130347321Y-80011904D01*
X130442559Y-80011904D01*
X129918750Y-80226190D02*
X129918750Y-79964285D01*
X129942559Y-79916666D01*
X129990178Y-79892857D01*
X130085416Y-79892857D01*
X130133035Y-79916666D01*
X129918750Y-80202380D02*
X129966369Y-80226190D01*
X130085416Y-80226190D01*
X130133035Y-80202380D01*
X130156845Y-80154761D01*
X130156845Y-80107142D01*
X130133035Y-80059523D01*
X130085416Y-80035714D01*
X129966369Y-80035714D01*
X129918750Y-80011904D01*
X129680654Y-80226190D02*
X129680654Y-79892857D01*
X129680654Y-79940476D02*
X129656845Y-79916666D01*
X129609226Y-79892857D01*
X129537797Y-79892857D01*
X129490178Y-79916666D01*
X129466369Y-79964285D01*
X129466369Y-80226190D01*
X129466369Y-79964285D02*
X129442559Y-79916666D01*
X129394940Y-79892857D01*
X129323511Y-79892857D01*
X129275892Y-79916666D01*
X129252083Y-79964285D01*
X129252083Y-80226190D01*
X128823511Y-80202380D02*
X128871130Y-80226190D01*
X128966369Y-80226190D01*
X129013988Y-80202380D01*
X129037797Y-80154761D01*
X129037797Y-79964285D01*
X129013988Y-79916666D01*
X128966369Y-79892857D01*
X128871130Y-79892857D01*
X128823511Y-79916666D01*
X128799702Y-79964285D01*
X128799702Y-80011904D01*
X129037797Y-80059523D01*
X128323511Y-80226190D02*
X128609226Y-80226190D01*
X128466369Y-80226190D02*
X128466369Y-79726190D01*
X128513988Y-79797619D01*
X128561607Y-79845238D01*
X128609226Y-79869047D01*
X127894940Y-79726190D02*
X127990178Y-79726190D01*
X128037797Y-79750000D01*
X128061607Y-79773809D01*
X128109226Y-79845238D01*
X128133035Y-79940476D01*
X128133035Y-80130952D01*
X128109226Y-80178571D01*
X128085416Y-80202380D01*
X128037797Y-80226190D01*
X127942559Y-80226190D01*
X127894940Y-80202380D01*
X127871130Y-80178571D01*
X127847321Y-80130952D01*
X127847321Y-80011904D01*
X127871130Y-79964285D01*
X127894940Y-79940476D01*
X127942559Y-79916666D01*
X128037797Y-79916666D01*
X128085416Y-79940476D01*
X128109226Y-79964285D01*
X128133035Y-80011904D01*
X127275892Y-79702380D02*
X127704464Y-80345238D01*
X134037797Y-80555000D02*
X134085416Y-80531190D01*
X134156845Y-80531190D01*
X134228273Y-80555000D01*
X134275892Y-80602619D01*
X134299702Y-80650238D01*
X134323511Y-80745476D01*
X134323511Y-80816904D01*
X134299702Y-80912142D01*
X134275892Y-80959761D01*
X134228273Y-81007380D01*
X134156845Y-81031190D01*
X134109226Y-81031190D01*
X134037797Y-81007380D01*
X134013988Y-80983571D01*
X134013988Y-80816904D01*
X134109226Y-80816904D01*
X133609226Y-81007380D02*
X133656845Y-81031190D01*
X133752083Y-81031190D01*
X133799702Y-81007380D01*
X133823511Y-80959761D01*
X133823511Y-80769285D01*
X133799702Y-80721666D01*
X133752083Y-80697857D01*
X133656845Y-80697857D01*
X133609226Y-80721666D01*
X133585416Y-80769285D01*
X133585416Y-80816904D01*
X133823511Y-80864523D01*
X133371130Y-80697857D02*
X133371130Y-81031190D01*
X133371130Y-80745476D02*
X133347321Y-80721666D01*
X133299702Y-80697857D01*
X133228273Y-80697857D01*
X133180654Y-80721666D01*
X133156845Y-80769285D01*
X133156845Y-81031190D01*
X132728273Y-81007380D02*
X132775892Y-81031190D01*
X132871130Y-81031190D01*
X132918750Y-81007380D01*
X132942559Y-80959761D01*
X132942559Y-80769285D01*
X132918750Y-80721666D01*
X132871130Y-80697857D01*
X132775892Y-80697857D01*
X132728273Y-80721666D01*
X132704464Y-80769285D01*
X132704464Y-80816904D01*
X132942559Y-80864523D01*
X132513988Y-81007380D02*
X132466369Y-81031190D01*
X132371130Y-81031190D01*
X132323511Y-81007380D01*
X132299702Y-80959761D01*
X132299702Y-80935952D01*
X132323511Y-80888333D01*
X132371130Y-80864523D01*
X132442559Y-80864523D01*
X132490178Y-80840714D01*
X132513988Y-80793095D01*
X132513988Y-80769285D01*
X132490178Y-80721666D01*
X132442559Y-80697857D01*
X132371130Y-80697857D01*
X132323511Y-80721666D01*
X132085416Y-81031190D02*
X132085416Y-80697857D01*
X132085416Y-80531190D02*
X132109226Y-80555000D01*
X132085416Y-80578809D01*
X132061607Y-80555000D01*
X132085416Y-80531190D01*
X132085416Y-80578809D01*
X131871130Y-81007380D02*
X131823511Y-81031190D01*
X131728273Y-81031190D01*
X131680654Y-81007380D01*
X131656845Y-80959761D01*
X131656845Y-80935952D01*
X131680654Y-80888333D01*
X131728273Y-80864523D01*
X131799702Y-80864523D01*
X131847321Y-80840714D01*
X131871130Y-80793095D01*
X131871130Y-80769285D01*
X131847321Y-80721666D01*
X131799702Y-80697857D01*
X131728273Y-80697857D01*
X131680654Y-80721666D01*
X131442559Y-80840714D02*
X131061607Y-80840714D01*
X130823511Y-81031190D02*
X130823511Y-80531190D01*
X130656845Y-80888333D01*
X130490178Y-80531190D01*
X130490178Y-81031190D01*
X130180654Y-81031190D02*
X130228273Y-81007380D01*
X130252083Y-80983571D01*
X130275892Y-80935952D01*
X130275892Y-80793095D01*
X130252083Y-80745476D01*
X130228273Y-80721666D01*
X130180654Y-80697857D01*
X130109226Y-80697857D01*
X130061607Y-80721666D01*
X130037797Y-80745476D01*
X130013988Y-80793095D01*
X130013988Y-80935952D01*
X130037797Y-80983571D01*
X130061607Y-81007380D01*
X130109226Y-81031190D01*
X130180654Y-81031190D01*
X129585416Y-81031190D02*
X129585416Y-80531190D01*
X129585416Y-81007380D02*
X129633035Y-81031190D01*
X129728273Y-81031190D01*
X129775892Y-81007380D01*
X129799702Y-80983571D01*
X129823511Y-80935952D01*
X129823511Y-80793095D01*
X129799702Y-80745476D01*
X129775892Y-80721666D01*
X129728273Y-80697857D01*
X129633035Y-80697857D01*
X129585416Y-80721666D01*
X129156845Y-81007380D02*
X129204464Y-81031190D01*
X129299702Y-81031190D01*
X129347321Y-81007380D01*
X129371130Y-80959761D01*
X129371130Y-80769285D01*
X129347321Y-80721666D01*
X129299702Y-80697857D01*
X129204464Y-80697857D01*
X129156845Y-80721666D01*
X129133035Y-80769285D01*
X129133035Y-80816904D01*
X129371130Y-80864523D01*
X128847321Y-81031190D02*
X128894940Y-81007380D01*
X128918750Y-80959761D01*
X128918750Y-80531190D01*
X128704464Y-80531190D02*
X128394940Y-80531190D01*
X128561607Y-80721666D01*
X128490178Y-80721666D01*
X128442559Y-80745476D01*
X128418750Y-80769285D01*
X128394940Y-80816904D01*
X128394940Y-80935952D01*
X128418750Y-80983571D01*
X128442559Y-81007380D01*
X128490178Y-81031190D01*
X128633035Y-81031190D01*
X128680654Y-81007380D01*
X128704464Y-80983571D01*
X128180654Y-80840714D02*
X127799702Y-80840714D01*
X127585416Y-81007380D02*
X127513988Y-81031190D01*
X127394940Y-81031190D01*
X127347321Y-81007380D01*
X127323511Y-80983571D01*
X127299702Y-80935952D01*
X127299702Y-80888333D01*
X127323511Y-80840714D01*
X127347321Y-80816904D01*
X127394940Y-80793095D01*
X127490178Y-80769285D01*
X127537797Y-80745476D01*
X127561607Y-80721666D01*
X127585416Y-80674047D01*
X127585416Y-80626428D01*
X127561607Y-80578809D01*
X127537797Y-80555000D01*
X127490178Y-80531190D01*
X127371130Y-80531190D01*
X127299702Y-80555000D01*
X127156845Y-80697857D02*
X126966369Y-80697857D01*
X127085416Y-80531190D02*
X127085416Y-80959761D01*
X127061607Y-81007380D01*
X127013988Y-81031190D01*
X126966369Y-81031190D01*
X126609226Y-81007380D02*
X126656845Y-81031190D01*
X126752083Y-81031190D01*
X126799702Y-81007380D01*
X126823511Y-80959761D01*
X126823511Y-80769285D01*
X126799702Y-80721666D01*
X126752083Y-80697857D01*
X126656845Y-80697857D01*
X126609226Y-80721666D01*
X126585416Y-80769285D01*
X126585416Y-80816904D01*
X126823511Y-80864523D01*
X126371130Y-81031190D02*
X126371130Y-80697857D01*
X126371130Y-80793095D02*
X126347321Y-80745476D01*
X126323511Y-80721666D01*
X126275892Y-80697857D01*
X126228273Y-80697857D01*
X125871130Y-81007380D02*
X125918750Y-81031190D01*
X126013988Y-81031190D01*
X126061607Y-81007380D01*
X126085416Y-80959761D01*
X126085416Y-80769285D01*
X126061607Y-80721666D01*
X126013988Y-80697857D01*
X125918750Y-80697857D01*
X125871130Y-80721666D01*
X125847321Y-80769285D01*
X125847321Y-80816904D01*
X126085416Y-80864523D01*
X125561607Y-81031190D02*
X125609226Y-81007380D01*
X125633035Y-80983571D01*
X125656845Y-80935952D01*
X125656845Y-80793095D01*
X125633035Y-80745476D01*
X125609226Y-80721666D01*
X125561607Y-80697857D01*
X125490178Y-80697857D01*
X125442559Y-80721666D01*
X125418750Y-80745476D01*
X125394940Y-80793095D01*
X125394940Y-80935952D01*
X125418750Y-80983571D01*
X125442559Y-81007380D01*
X125490178Y-81031190D01*
X125561607Y-81031190D01*
G36*
X133515701Y-100750935D02*
G01*
X133514914Y-100821119D01*
X133512210Y-100870022D01*
X133506606Y-100904178D01*
X133497119Y-100930124D01*
X133482768Y-100954397D01*
X133479237Y-100959433D01*
X133441878Y-100999143D01*
X133399311Y-101029092D01*
X133377452Y-101038810D01*
X133298908Y-101055020D01*
X133221231Y-101044535D01*
X133149645Y-101008707D01*
X133089374Y-100948887D01*
X133084286Y-100940873D01*
X133067730Y-100894342D01*
X133056573Y-100829552D01*
X133051160Y-100754727D01*
X133051768Y-100685513D01*
X133198248Y-100685513D01*
X133199402Y-100781399D01*
X133199866Y-100787569D01*
X133206629Y-100840478D01*
X133218671Y-100874029D01*
X133239005Y-100897016D01*
X133273097Y-100918548D01*
X133306814Y-100919680D01*
X133341543Y-100894857D01*
X133347584Y-100888325D01*
X133359417Y-100868779D01*
X133366404Y-100840386D01*
X133369727Y-100796430D01*
X133370571Y-100730192D01*
X133369125Y-100668150D01*
X133361907Y-100609042D01*
X133347006Y-100571686D01*
X133322636Y-100552152D01*
X133287008Y-100546514D01*
X133273440Y-100547635D01*
X133235430Y-100568194D01*
X133210312Y-100614299D01*
X133198248Y-100685513D01*
X133051768Y-100685513D01*
X133051833Y-100678096D01*
X133058937Y-100607882D01*
X133072815Y-100552312D01*
X133090649Y-100515301D01*
X133140855Y-100457733D01*
X133208885Y-100421962D01*
X133292158Y-100409665D01*
X133314398Y-100410331D01*
X133379891Y-100423947D01*
X133433687Y-100458249D01*
X133483057Y-100517338D01*
X133485995Y-100521722D01*
X133499287Y-100545299D01*
X133507932Y-100571949D01*
X133512904Y-100608159D01*
X133515174Y-100660413D01*
X133515678Y-100730192D01*
X133515714Y-100735200D01*
X133515701Y-100750935D01*
G37*
D13*
X133515701Y-100750935D02*
X133514914Y-100821119D01*
X133512210Y-100870022D01*
X133506606Y-100904178D01*
X133497119Y-100930124D01*
X133482768Y-100954397D01*
X133479237Y-100959433D01*
X133441878Y-100999143D01*
X133399311Y-101029092D01*
X133377452Y-101038810D01*
X133298908Y-101055020D01*
X133221231Y-101044535D01*
X133149645Y-101008707D01*
X133089374Y-100948887D01*
X133084286Y-100940873D01*
X133067730Y-100894342D01*
X133056573Y-100829552D01*
X133051160Y-100754727D01*
X133051768Y-100685513D01*
X133198248Y-100685513D01*
X133199402Y-100781399D01*
X133199866Y-100787569D01*
X133206629Y-100840478D01*
X133218671Y-100874029D01*
X133239005Y-100897016D01*
X133273097Y-100918548D01*
X133306814Y-100919680D01*
X133341543Y-100894857D01*
X133347584Y-100888325D01*
X133359417Y-100868779D01*
X133366404Y-100840386D01*
X133369727Y-100796430D01*
X133370571Y-100730192D01*
X133369125Y-100668150D01*
X133361907Y-100609042D01*
X133347006Y-100571686D01*
X133322636Y-100552152D01*
X133287008Y-100546514D01*
X133273440Y-100547635D01*
X133235430Y-100568194D01*
X133210312Y-100614299D01*
X133198248Y-100685513D01*
X133051768Y-100685513D01*
X133051833Y-100678096D01*
X133058937Y-100607882D01*
X133072815Y-100552312D01*
X133090649Y-100515301D01*
X133140855Y-100457733D01*
X133208885Y-100421962D01*
X133292158Y-100409665D01*
X133314398Y-100410331D01*
X133379891Y-100423947D01*
X133433687Y-100458249D01*
X133483057Y-100517338D01*
X133485995Y-100521722D01*
X133499287Y-100545299D01*
X133507932Y-100571949D01*
X133512904Y-100608159D01*
X133515174Y-100660413D01*
X133515678Y-100730192D01*
X133515714Y-100735200D01*
X133515701Y-100750935D01*
G36*
X130363933Y-95742371D02*
G01*
X130439856Y-95742865D01*
X130494491Y-95744135D01*
X130531500Y-95746547D01*
X130554547Y-95750467D01*
X130567296Y-95756262D01*
X130573411Y-95764299D01*
X130576556Y-95774943D01*
X130576646Y-95775325D01*
X130581814Y-95800347D01*
X130591209Y-95848681D01*
X130603867Y-95915260D01*
X130618825Y-95995014D01*
X130635119Y-96082875D01*
X130636448Y-96090064D01*
X130652691Y-96175340D01*
X130667805Y-96250242D01*
X130680808Y-96310219D01*
X130690715Y-96350717D01*
X130696544Y-96367184D01*
X130696575Y-96367210D01*
X130714943Y-96376320D01*
X130752640Y-96391457D01*
X130801543Y-96409358D01*
X130804297Y-96410330D01*
X130866817Y-96433959D01*
X130939543Y-96463595D01*
X131007294Y-96493062D01*
X131118703Y-96543626D01*
X131365399Y-96375160D01*
X131382775Y-96363311D01*
X131457202Y-96312947D01*
X131523614Y-96268612D01*
X131578039Y-96232916D01*
X131616506Y-96208471D01*
X131635042Y-96197889D01*
X131647743Y-96200315D01*
X131676579Y-96219110D01*
X131721143Y-96256330D01*
X131782670Y-96313020D01*
X131862398Y-96390227D01*
X131869532Y-96397255D01*
X131932796Y-96460222D01*
X131988990Y-96517268D01*
X132034677Y-96564817D01*
X132066414Y-96599297D01*
X132080764Y-96617131D01*
X132080810Y-96617217D01*
X132082633Y-96630795D01*
X132075910Y-96652820D01*
X132058946Y-96686304D01*
X132030044Y-96734261D01*
X131987508Y-96799704D01*
X131929644Y-96885645D01*
X131919783Y-96900151D01*
X131869913Y-96973635D01*
X131825905Y-97038687D01*
X131790380Y-97091417D01*
X131765959Y-97127936D01*
X131755264Y-97144356D01*
X131754458Y-97147834D01*
X131759518Y-97173785D01*
X131774677Y-97216159D01*
X131797463Y-97267728D01*
X131828429Y-97335170D01*
X131863004Y-97415195D01*
X131892366Y-97487629D01*
X131899645Y-97506377D01*
X131918710Y-97554246D01*
X131932715Y-97587596D01*
X131939041Y-97600114D01*
X131946025Y-97601050D01*
X131977413Y-97606461D01*
X132028787Y-97615806D01*
X132094802Y-97628069D01*
X132170113Y-97642232D01*
X132249375Y-97657280D01*
X132327243Y-97672195D01*
X132398370Y-97685961D01*
X132457412Y-97697562D01*
X132499022Y-97705980D01*
X132517857Y-97710199D01*
X132520980Y-97711389D01*
X132528591Y-97717805D01*
X132534254Y-97731465D01*
X132538251Y-97755999D01*
X132540866Y-97795038D01*
X132542384Y-97852213D01*
X132543086Y-97931154D01*
X132543257Y-98035492D01*
X132543257Y-98352799D01*
X132467057Y-98367839D01*
X132457840Y-98369642D01*
X132408891Y-98378980D01*
X132341205Y-98391669D01*
X132262478Y-98406273D01*
X132180400Y-98421355D01*
X132148078Y-98427422D01*
X132075855Y-98442181D01*
X132015666Y-98456137D01*
X131973040Y-98467952D01*
X131953510Y-98476287D01*
X131944660Y-98489905D01*
X131928548Y-98525938D01*
X131912065Y-98572572D01*
X131906263Y-98590034D01*
X131884906Y-98647358D01*
X131857359Y-98715201D01*
X131828107Y-98782355D01*
X131812463Y-98817430D01*
X131790174Y-98869822D01*
X131774857Y-98909058D01*
X131769162Y-98928563D01*
X131769478Y-98930036D01*
X131780281Y-98950729D01*
X131804638Y-98990665D01*
X131840081Y-99045972D01*
X131884136Y-99112781D01*
X131934332Y-99187220D01*
X132099501Y-99429623D01*
X131882503Y-99646983D01*
X131861516Y-99667899D01*
X131797342Y-99730505D01*
X131739990Y-99784495D01*
X131692820Y-99826826D01*
X131659192Y-99854457D01*
X131642467Y-99864343D01*
X131624303Y-99856821D01*
X131586265Y-99835227D01*
X131532726Y-99802151D01*
X131467884Y-99760191D01*
X131395940Y-99711943D01*
X131325275Y-99664291D01*
X131261526Y-99622328D01*
X131209513Y-99589165D01*
X131173279Y-99567378D01*
X131156867Y-99559543D01*
X131155905Y-99559614D01*
X131134103Y-99567338D01*
X131095440Y-99585323D01*
X131047612Y-99610013D01*
X131047110Y-99610284D01*
X130983587Y-99642099D01*
X130940060Y-99657642D01*
X130913052Y-99657685D01*
X130899090Y-99643000D01*
X130893180Y-99628544D01*
X130877229Y-99589831D01*
X130852660Y-99530316D01*
X130820779Y-99453165D01*
X130782893Y-99361541D01*
X130740310Y-99258607D01*
X130694337Y-99147526D01*
X130652667Y-99046472D01*
X130610268Y-98942780D01*
X130572756Y-98850119D01*
X130541388Y-98771642D01*
X130517425Y-98710500D01*
X130502123Y-98669843D01*
X130496743Y-98652825D01*
X130507018Y-98637219D01*
X130535563Y-98611162D01*
X130575971Y-98580887D01*
X130672979Y-98501684D01*
X130759793Y-98400475D01*
X130823322Y-98289116D01*
X130863177Y-98170893D01*
X130878965Y-98049095D01*
X130870296Y-97927010D01*
X130836778Y-97807925D01*
X130778021Y-97695129D01*
X130693632Y-97591911D01*
X130649631Y-97551713D01*
X130544211Y-97480638D01*
X130431410Y-97434301D01*
X130314525Y-97411599D01*
X130196853Y-97411428D01*
X130081690Y-97432687D01*
X129972335Y-97474270D01*
X129872083Y-97535076D01*
X129784233Y-97614001D01*
X129712080Y-97709941D01*
X129658922Y-97821795D01*
X129628057Y-97948457D01*
X129622392Y-98009507D01*
X129630185Y-98141776D01*
X129665284Y-98267266D01*
X129726649Y-98383759D01*
X129813243Y-98489039D01*
X129924029Y-98580887D01*
X129962931Y-98609930D01*
X129992104Y-98636272D01*
X130003257Y-98652800D01*
X129998810Y-98667209D01*
X129984378Y-98705815D01*
X129961173Y-98765201D01*
X129930452Y-98842215D01*
X129893474Y-98933703D01*
X129851496Y-99036516D01*
X129805778Y-99147502D01*
X129764178Y-99248072D01*
X129721222Y-99351947D01*
X129682829Y-99444819D01*
X129650305Y-99523525D01*
X129624958Y-99584899D01*
X129608095Y-99625779D01*
X129601025Y-99643000D01*
X129600943Y-99643204D01*
X129586798Y-99657745D01*
X129559659Y-99657579D01*
X129516023Y-99641927D01*
X129452388Y-99610013D01*
X129447379Y-99607326D01*
X129400125Y-99583150D01*
X129362811Y-99566037D01*
X129343133Y-99559543D01*
X129327005Y-99567218D01*
X129290959Y-99588871D01*
X129239092Y-99621928D01*
X129175445Y-99663810D01*
X129104060Y-99711943D01*
X129033724Y-99759131D01*
X128968670Y-99801267D01*
X128914820Y-99834578D01*
X128876374Y-99856469D01*
X128857534Y-99864343D01*
X128854325Y-99863343D01*
X128831954Y-99847584D01*
X128793733Y-99815033D01*
X128743021Y-99768733D01*
X128683181Y-99711726D01*
X128617571Y-99647058D01*
X128400648Y-99429772D01*
X128569601Y-99181253D01*
X128738553Y-98932733D01*
X128687183Y-98821595D01*
X128687031Y-98821266D01*
X128656183Y-98750418D01*
X128624661Y-98671523D01*
X128599266Y-98601600D01*
X128595423Y-98590322D01*
X128576047Y-98537967D01*
X128558574Y-98497283D01*
X128546388Y-98476287D01*
X128541426Y-98473322D01*
X128511634Y-98463375D01*
X128461047Y-98450505D01*
X128395194Y-98436053D01*
X128319600Y-98421355D01*
X128296957Y-98417210D01*
X128215038Y-98402116D01*
X128138600Y-98387899D01*
X128075337Y-98375995D01*
X128032943Y-98367839D01*
X127956743Y-98352799D01*
X127956743Y-98035492D01*
X127956760Y-97996476D01*
X127957082Y-97901292D01*
X127958033Y-97830255D01*
X127959896Y-97779734D01*
X127962955Y-97746098D01*
X127967494Y-97725718D01*
X127973795Y-97714962D01*
X127982143Y-97710199D01*
X127990224Y-97708270D01*
X128023172Y-97701445D01*
X128075736Y-97691022D01*
X128142569Y-97678018D01*
X128218328Y-97663449D01*
X128297665Y-97648333D01*
X128375237Y-97633685D01*
X128445698Y-97620523D01*
X128503702Y-97609863D01*
X128543904Y-97602721D01*
X128560959Y-97600114D01*
X128562112Y-97598541D01*
X128571385Y-97578119D01*
X128587432Y-97539045D01*
X128607635Y-97487629D01*
X128635672Y-97418353D01*
X128670186Y-97338290D01*
X128702538Y-97267728D01*
X128709952Y-97251889D01*
X128730755Y-97202293D01*
X128743219Y-97164038D01*
X128744863Y-97144356D01*
X128744015Y-97142962D01*
X128730548Y-97122420D01*
X128703850Y-97082516D01*
X128666539Y-97027140D01*
X128621234Y-96960177D01*
X128570552Y-96885517D01*
X128513445Y-96800692D01*
X128470607Y-96734800D01*
X128441460Y-96686478D01*
X128424317Y-96652733D01*
X128417495Y-96630572D01*
X128419306Y-96617002D01*
X128419915Y-96615984D01*
X128436297Y-96596210D01*
X128469695Y-96560175D01*
X128516671Y-96511451D01*
X128573786Y-96453612D01*
X128637603Y-96390227D01*
X128703802Y-96325905D01*
X128768648Y-96265447D01*
X128816299Y-96224655D01*
X128847990Y-96202484D01*
X128864958Y-96197889D01*
X128867175Y-96198921D01*
X128890524Y-96212837D01*
X128932912Y-96240030D01*
X128990369Y-96277889D01*
X129058923Y-96323803D01*
X129134601Y-96375160D01*
X129381298Y-96543626D01*
X129492706Y-96493062D01*
X129495943Y-96491597D01*
X129564343Y-96461965D01*
X129636907Y-96432493D01*
X129698457Y-96409358D01*
X129698729Y-96409262D01*
X129747595Y-96391367D01*
X129785212Y-96376253D01*
X129803457Y-96367184D01*
X129803752Y-96366855D01*
X129809946Y-96348282D01*
X129820139Y-96306045D01*
X129833348Y-96244696D01*
X129848590Y-96168789D01*
X129864881Y-96082875D01*
X129865449Y-96079796D01*
X129881713Y-95992128D01*
X129896608Y-95912741D01*
X129909171Y-95846701D01*
X129918438Y-95799079D01*
X129923444Y-95774943D01*
X129923764Y-95773605D01*
X129927060Y-95763273D01*
X129933738Y-95755506D01*
X129947462Y-95749940D01*
X129971895Y-95746207D01*
X130010702Y-95743942D01*
X130067546Y-95742778D01*
X130146090Y-95742348D01*
X130250000Y-95742286D01*
X130263056Y-95742286D01*
X130363933Y-95742371D01*
G37*
X130363933Y-95742371D02*
X130439856Y-95742865D01*
X130494491Y-95744135D01*
X130531500Y-95746547D01*
X130554547Y-95750467D01*
X130567296Y-95756262D01*
X130573411Y-95764299D01*
X130576556Y-95774943D01*
X130576646Y-95775325D01*
X130581814Y-95800347D01*
X130591209Y-95848681D01*
X130603867Y-95915260D01*
X130618825Y-95995014D01*
X130635119Y-96082875D01*
X130636448Y-96090064D01*
X130652691Y-96175340D01*
X130667805Y-96250242D01*
X130680808Y-96310219D01*
X130690715Y-96350717D01*
X130696544Y-96367184D01*
X130696575Y-96367210D01*
X130714943Y-96376320D01*
X130752640Y-96391457D01*
X130801543Y-96409358D01*
X130804297Y-96410330D01*
X130866817Y-96433959D01*
X130939543Y-96463595D01*
X131007294Y-96493062D01*
X131118703Y-96543626D01*
X131365399Y-96375160D01*
X131382775Y-96363311D01*
X131457202Y-96312947D01*
X131523614Y-96268612D01*
X131578039Y-96232916D01*
X131616506Y-96208471D01*
X131635042Y-96197889D01*
X131647743Y-96200315D01*
X131676579Y-96219110D01*
X131721143Y-96256330D01*
X131782670Y-96313020D01*
X131862398Y-96390227D01*
X131869532Y-96397255D01*
X131932796Y-96460222D01*
X131988990Y-96517268D01*
X132034677Y-96564817D01*
X132066414Y-96599297D01*
X132080764Y-96617131D01*
X132080810Y-96617217D01*
X132082633Y-96630795D01*
X132075910Y-96652820D01*
X132058946Y-96686304D01*
X132030044Y-96734261D01*
X131987508Y-96799704D01*
X131929644Y-96885645D01*
X131919783Y-96900151D01*
X131869913Y-96973635D01*
X131825905Y-97038687D01*
X131790380Y-97091417D01*
X131765959Y-97127936D01*
X131755264Y-97144356D01*
X131754458Y-97147834D01*
X131759518Y-97173785D01*
X131774677Y-97216159D01*
X131797463Y-97267728D01*
X131828429Y-97335170D01*
X131863004Y-97415195D01*
X131892366Y-97487629D01*
X131899645Y-97506377D01*
X131918710Y-97554246D01*
X131932715Y-97587596D01*
X131939041Y-97600114D01*
X131946025Y-97601050D01*
X131977413Y-97606461D01*
X132028787Y-97615806D01*
X132094802Y-97628069D01*
X132170113Y-97642232D01*
X132249375Y-97657280D01*
X132327243Y-97672195D01*
X132398370Y-97685961D01*
X132457412Y-97697562D01*
X132499022Y-97705980D01*
X132517857Y-97710199D01*
X132520980Y-97711389D01*
X132528591Y-97717805D01*
X132534254Y-97731465D01*
X132538251Y-97755999D01*
X132540866Y-97795038D01*
X132542384Y-97852213D01*
X132543086Y-97931154D01*
X132543257Y-98035492D01*
X132543257Y-98352799D01*
X132467057Y-98367839D01*
X132457840Y-98369642D01*
X132408891Y-98378980D01*
X132341205Y-98391669D01*
X132262478Y-98406273D01*
X132180400Y-98421355D01*
X132148078Y-98427422D01*
X132075855Y-98442181D01*
X132015666Y-98456137D01*
X131973040Y-98467952D01*
X131953510Y-98476287D01*
X131944660Y-98489905D01*
X131928548Y-98525938D01*
X131912065Y-98572572D01*
X131906263Y-98590034D01*
X131884906Y-98647358D01*
X131857359Y-98715201D01*
X131828107Y-98782355D01*
X131812463Y-98817430D01*
X131790174Y-98869822D01*
X131774857Y-98909058D01*
X131769162Y-98928563D01*
X131769478Y-98930036D01*
X131780281Y-98950729D01*
X131804638Y-98990665D01*
X131840081Y-99045972D01*
X131884136Y-99112781D01*
X131934332Y-99187220D01*
X132099501Y-99429623D01*
X131882503Y-99646983D01*
X131861516Y-99667899D01*
X131797342Y-99730505D01*
X131739990Y-99784495D01*
X131692820Y-99826826D01*
X131659192Y-99854457D01*
X131642467Y-99864343D01*
X131624303Y-99856821D01*
X131586265Y-99835227D01*
X131532726Y-99802151D01*
X131467884Y-99760191D01*
X131395940Y-99711943D01*
X131325275Y-99664291D01*
X131261526Y-99622328D01*
X131209513Y-99589165D01*
X131173279Y-99567378D01*
X131156867Y-99559543D01*
X131155905Y-99559614D01*
X131134103Y-99567338D01*
X131095440Y-99585323D01*
X131047612Y-99610013D01*
X131047110Y-99610284D01*
X130983587Y-99642099D01*
X130940060Y-99657642D01*
X130913052Y-99657685D01*
X130899090Y-99643000D01*
X130893180Y-99628544D01*
X130877229Y-99589831D01*
X130852660Y-99530316D01*
X130820779Y-99453165D01*
X130782893Y-99361541D01*
X130740310Y-99258607D01*
X130694337Y-99147526D01*
X130652667Y-99046472D01*
X130610268Y-98942780D01*
X130572756Y-98850119D01*
X130541388Y-98771642D01*
X130517425Y-98710500D01*
X130502123Y-98669843D01*
X130496743Y-98652825D01*
X130507018Y-98637219D01*
X130535563Y-98611162D01*
X130575971Y-98580887D01*
X130672979Y-98501684D01*
X130759793Y-98400475D01*
X130823322Y-98289116D01*
X130863177Y-98170893D01*
X130878965Y-98049095D01*
X130870296Y-97927010D01*
X130836778Y-97807925D01*
X130778021Y-97695129D01*
X130693632Y-97591911D01*
X130649631Y-97551713D01*
X130544211Y-97480638D01*
X130431410Y-97434301D01*
X130314525Y-97411599D01*
X130196853Y-97411428D01*
X130081690Y-97432687D01*
X129972335Y-97474270D01*
X129872083Y-97535076D01*
X129784233Y-97614001D01*
X129712080Y-97709941D01*
X129658922Y-97821795D01*
X129628057Y-97948457D01*
X129622392Y-98009507D01*
X129630185Y-98141776D01*
X129665284Y-98267266D01*
X129726649Y-98383759D01*
X129813243Y-98489039D01*
X129924029Y-98580887D01*
X129962931Y-98609930D01*
X129992104Y-98636272D01*
X130003257Y-98652800D01*
X129998810Y-98667209D01*
X129984378Y-98705815D01*
X129961173Y-98765201D01*
X129930452Y-98842215D01*
X129893474Y-98933703D01*
X129851496Y-99036516D01*
X129805778Y-99147502D01*
X129764178Y-99248072D01*
X129721222Y-99351947D01*
X129682829Y-99444819D01*
X129650305Y-99523525D01*
X129624958Y-99584899D01*
X129608095Y-99625779D01*
X129601025Y-99643000D01*
X129600943Y-99643204D01*
X129586798Y-99657745D01*
X129559659Y-99657579D01*
X129516023Y-99641927D01*
X129452388Y-99610013D01*
X129447379Y-99607326D01*
X129400125Y-99583150D01*
X129362811Y-99566037D01*
X129343133Y-99559543D01*
X129327005Y-99567218D01*
X129290959Y-99588871D01*
X129239092Y-99621928D01*
X129175445Y-99663810D01*
X129104060Y-99711943D01*
X129033724Y-99759131D01*
X128968670Y-99801267D01*
X128914820Y-99834578D01*
X128876374Y-99856469D01*
X128857534Y-99864343D01*
X128854325Y-99863343D01*
X128831954Y-99847584D01*
X128793733Y-99815033D01*
X128743021Y-99768733D01*
X128683181Y-99711726D01*
X128617571Y-99647058D01*
X128400648Y-99429772D01*
X128569601Y-99181253D01*
X128738553Y-98932733D01*
X128687183Y-98821595D01*
X128687031Y-98821266D01*
X128656183Y-98750418D01*
X128624661Y-98671523D01*
X128599266Y-98601600D01*
X128595423Y-98590322D01*
X128576047Y-98537967D01*
X128558574Y-98497283D01*
X128546388Y-98476287D01*
X128541426Y-98473322D01*
X128511634Y-98463375D01*
X128461047Y-98450505D01*
X128395194Y-98436053D01*
X128319600Y-98421355D01*
X128296957Y-98417210D01*
X128215038Y-98402116D01*
X128138600Y-98387899D01*
X128075337Y-98375995D01*
X128032943Y-98367839D01*
X127956743Y-98352799D01*
X127956743Y-98035492D01*
X127956760Y-97996476D01*
X127957082Y-97901292D01*
X127958033Y-97830255D01*
X127959896Y-97779734D01*
X127962955Y-97746098D01*
X127967494Y-97725718D01*
X127973795Y-97714962D01*
X127982143Y-97710199D01*
X127990224Y-97708270D01*
X128023172Y-97701445D01*
X128075736Y-97691022D01*
X128142569Y-97678018D01*
X128218328Y-97663449D01*
X128297665Y-97648333D01*
X128375237Y-97633685D01*
X128445698Y-97620523D01*
X128503702Y-97609863D01*
X128543904Y-97602721D01*
X128560959Y-97600114D01*
X128562112Y-97598541D01*
X128571385Y-97578119D01*
X128587432Y-97539045D01*
X128607635Y-97487629D01*
X128635672Y-97418353D01*
X128670186Y-97338290D01*
X128702538Y-97267728D01*
X128709952Y-97251889D01*
X128730755Y-97202293D01*
X128743219Y-97164038D01*
X128744863Y-97144356D01*
X128744015Y-97142962D01*
X128730548Y-97122420D01*
X128703850Y-97082516D01*
X128666539Y-97027140D01*
X128621234Y-96960177D01*
X128570552Y-96885517D01*
X128513445Y-96800692D01*
X128470607Y-96734800D01*
X128441460Y-96686478D01*
X128424317Y-96652733D01*
X128417495Y-96630572D01*
X128419306Y-96617002D01*
X128419915Y-96615984D01*
X128436297Y-96596210D01*
X128469695Y-96560175D01*
X128516671Y-96511451D01*
X128573786Y-96453612D01*
X128637603Y-96390227D01*
X128703802Y-96325905D01*
X128768648Y-96265447D01*
X128816299Y-96224655D01*
X128847990Y-96202484D01*
X128864958Y-96197889D01*
X128867175Y-96198921D01*
X128890524Y-96212837D01*
X128932912Y-96240030D01*
X128990369Y-96277889D01*
X129058923Y-96323803D01*
X129134601Y-96375160D01*
X129381298Y-96543626D01*
X129492706Y-96493062D01*
X129495943Y-96491597D01*
X129564343Y-96461965D01*
X129636907Y-96432493D01*
X129698457Y-96409358D01*
X129698729Y-96409262D01*
X129747595Y-96391367D01*
X129785212Y-96376253D01*
X129803457Y-96367184D01*
X129803752Y-96366855D01*
X129809946Y-96348282D01*
X129820139Y-96306045D01*
X129833348Y-96244696D01*
X129848590Y-96168789D01*
X129864881Y-96082875D01*
X129865449Y-96079796D01*
X129881713Y-95992128D01*
X129896608Y-95912741D01*
X129909171Y-95846701D01*
X129918438Y-95799079D01*
X129923444Y-95774943D01*
X129923764Y-95773605D01*
X129927060Y-95763273D01*
X129933738Y-95755506D01*
X129947462Y-95749940D01*
X129971895Y-95746207D01*
X130010702Y-95743942D01*
X130067546Y-95742778D01*
X130146090Y-95742348D01*
X130250000Y-95742286D01*
X130263056Y-95742286D01*
X130363933Y-95742371D01*
G36*
X130339483Y-100460569D02*
G01*
X130389376Y-100489661D01*
X130411325Y-100512327D01*
X130453504Y-100580082D01*
X130467714Y-100653950D01*
X130467714Y-100704770D01*
X130420999Y-100685128D01*
X130388692Y-100665308D01*
X130363231Y-100624160D01*
X130360616Y-100615675D01*
X130332478Y-100572451D01*
X130290067Y-100549103D01*
X130241370Y-100548100D01*
X130194373Y-100571914D01*
X130187357Y-100578056D01*
X130163893Y-100604745D01*
X130160019Y-100628014D01*
X130177768Y-100650862D01*
X130219179Y-100676287D01*
X130286286Y-100707288D01*
X130290824Y-100709252D01*
X130365322Y-100743990D01*
X130416203Y-100774763D01*
X130447525Y-100805488D01*
X130463343Y-100840082D01*
X130467714Y-100882462D01*
X130461986Y-100929446D01*
X130433062Y-100989585D01*
X130382178Y-101032788D01*
X130345374Y-101045759D01*
X130293434Y-101052856D01*
X130242999Y-101051340D01*
X130206983Y-101040632D01*
X130203158Y-101037966D01*
X130192998Y-101019337D01*
X130200048Y-100986505D01*
X130212297Y-100960735D01*
X130231939Y-100950006D01*
X130269191Y-100950539D01*
X130320908Y-100947462D01*
X130354701Y-100926212D01*
X130366114Y-100886877D01*
X130366104Y-100885747D01*
X130359187Y-100862913D01*
X130335659Y-100841963D01*
X130289914Y-100817815D01*
X130227704Y-100788741D01*
X130186499Y-100772925D01*
X130162712Y-100773944D01*
X130151597Y-100794837D01*
X130148408Y-100838641D01*
X130148400Y-100908393D01*
X130148044Y-100951452D01*
X130146413Y-101004626D01*
X130143761Y-101041022D01*
X130140422Y-101054514D01*
X130139530Y-101054423D01*
X130120237Y-101047110D01*
X130088284Y-101031678D01*
X130044124Y-101008842D01*
X130049371Y-100803078D01*
X130049736Y-100789432D01*
X130053904Y-100693651D01*
X130061268Y-100621462D01*
X130073330Y-100568058D01*
X130091593Y-100528633D01*
X130117560Y-100498380D01*
X130152733Y-100472493D01*
X130153384Y-100472087D01*
X130210256Y-100450968D01*
X130276033Y-100447400D01*
X130339483Y-100460569D01*
G37*
X130339483Y-100460569D02*
X130389376Y-100489661D01*
X130411325Y-100512327D01*
X130453504Y-100580082D01*
X130467714Y-100653950D01*
X130467714Y-100704770D01*
X130420999Y-100685128D01*
X130388692Y-100665308D01*
X130363231Y-100624160D01*
X130360616Y-100615675D01*
X130332478Y-100572451D01*
X130290067Y-100549103D01*
X130241370Y-100548100D01*
X130194373Y-100571914D01*
X130187357Y-100578056D01*
X130163893Y-100604745D01*
X130160019Y-100628014D01*
X130177768Y-100650862D01*
X130219179Y-100676287D01*
X130286286Y-100707288D01*
X130290824Y-100709252D01*
X130365322Y-100743990D01*
X130416203Y-100774763D01*
X130447525Y-100805488D01*
X130463343Y-100840082D01*
X130467714Y-100882462D01*
X130461986Y-100929446D01*
X130433062Y-100989585D01*
X130382178Y-101032788D01*
X130345374Y-101045759D01*
X130293434Y-101052856D01*
X130242999Y-101051340D01*
X130206983Y-101040632D01*
X130203158Y-101037966D01*
X130192998Y-101019337D01*
X130200048Y-100986505D01*
X130212297Y-100960735D01*
X130231939Y-100950006D01*
X130269191Y-100950539D01*
X130320908Y-100947462D01*
X130354701Y-100926212D01*
X130366114Y-100886877D01*
X130366104Y-100885747D01*
X130359187Y-100862913D01*
X130335659Y-100841963D01*
X130289914Y-100817815D01*
X130227704Y-100788741D01*
X130186499Y-100772925D01*
X130162712Y-100773944D01*
X130151597Y-100794837D01*
X130148408Y-100838641D01*
X130148400Y-100908393D01*
X130148044Y-100951452D01*
X130146413Y-101004626D01*
X130143761Y-101041022D01*
X130140422Y-101054514D01*
X130139530Y-101054423D01*
X130120237Y-101047110D01*
X130088284Y-101031678D01*
X130044124Y-101008842D01*
X130049371Y-100803078D01*
X130049736Y-100789432D01*
X130053904Y-100693651D01*
X130061268Y-100621462D01*
X130073330Y-100568058D01*
X130091593Y-100528633D01*
X130117560Y-100498380D01*
X130152733Y-100472493D01*
X130153384Y-100472087D01*
X130210256Y-100450968D01*
X130276033Y-100447400D01*
X130339483Y-100460569D01*
G36*
X127390307Y-100791305D02*
G01*
X127386762Y-100867521D01*
X127377483Y-100923294D01*
X127360375Y-100964613D01*
X127333344Y-100997467D01*
X127294292Y-101027846D01*
X127269445Y-101041660D01*
X127229615Y-101050965D01*
X127173665Y-101050230D01*
X127142385Y-101047283D01*
X127104653Y-101038283D01*
X127074494Y-101018720D01*
X127039408Y-100982267D01*
X127034720Y-100976943D01*
X127003177Y-100935969D01*
X126988128Y-100900283D01*
X126984286Y-100857966D01*
X126984286Y-100795779D01*
X127027742Y-100812182D01*
X127059424Y-100831356D01*
X127086962Y-100876347D01*
X127092711Y-100890752D01*
X127124855Y-100931546D01*
X127168611Y-100952081D01*
X127216254Y-100950235D01*
X127260057Y-100923886D01*
X127275111Y-100907455D01*
X127288763Y-100882667D01*
X127284493Y-100860144D01*
X127259916Y-100836964D01*
X127212651Y-100810202D01*
X127140314Y-100776934D01*
X126991543Y-100711816D01*
X126987595Y-100647308D01*
X126989079Y-100606220D01*
X127086010Y-100606220D01*
X127093368Y-100631657D01*
X127126848Y-100658814D01*
X127187614Y-100689714D01*
X127197669Y-100694190D01*
X127245751Y-100715017D01*
X127281726Y-100729665D01*
X127298444Y-100735200D01*
X127300977Y-100731126D01*
X127301993Y-100706247D01*
X127298369Y-100666257D01*
X127289242Y-100627152D01*
X127260773Y-100577884D01*
X127219678Y-100550122D01*
X127170590Y-100546364D01*
X127118144Y-100569109D01*
X127103609Y-100580481D01*
X127086010Y-100606220D01*
X126989079Y-100606220D01*
X126989338Y-100599064D01*
X127011281Y-100538096D01*
X127038979Y-100504497D01*
X127096405Y-100466966D01*
X127164527Y-100448006D01*
X127234947Y-100449507D01*
X127299267Y-100473355D01*
X127313426Y-100482513D01*
X127345904Y-100510849D01*
X127368116Y-100546695D01*
X127381804Y-100595384D01*
X127388715Y-100662249D01*
X127389628Y-100706247D01*
X127390590Y-100752622D01*
X127390307Y-100791305D01*
G37*
X127390307Y-100791305D02*
X127386762Y-100867521D01*
X127377483Y-100923294D01*
X127360375Y-100964613D01*
X127333344Y-100997467D01*
X127294292Y-101027846D01*
X127269445Y-101041660D01*
X127229615Y-101050965D01*
X127173665Y-101050230D01*
X127142385Y-101047283D01*
X127104653Y-101038283D01*
X127074494Y-101018720D01*
X127039408Y-100982267D01*
X127034720Y-100976943D01*
X127003177Y-100935969D01*
X126988128Y-100900283D01*
X126984286Y-100857966D01*
X126984286Y-100795779D01*
X127027742Y-100812182D01*
X127059424Y-100831356D01*
X127086962Y-100876347D01*
X127092711Y-100890752D01*
X127124855Y-100931546D01*
X127168611Y-100952081D01*
X127216254Y-100950235D01*
X127260057Y-100923886D01*
X127275111Y-100907455D01*
X127288763Y-100882667D01*
X127284493Y-100860144D01*
X127259916Y-100836964D01*
X127212651Y-100810202D01*
X127140314Y-100776934D01*
X126991543Y-100711816D01*
X126987595Y-100647308D01*
X126989079Y-100606220D01*
X127086010Y-100606220D01*
X127093368Y-100631657D01*
X127126848Y-100658814D01*
X127187614Y-100689714D01*
X127197669Y-100694190D01*
X127245751Y-100715017D01*
X127281726Y-100729665D01*
X127298444Y-100735200D01*
X127300977Y-100731126D01*
X127301993Y-100706247D01*
X127298369Y-100666257D01*
X127289242Y-100627152D01*
X127260773Y-100577884D01*
X127219678Y-100550122D01*
X127170590Y-100546364D01*
X127118144Y-100569109D01*
X127103609Y-100580481D01*
X127086010Y-100606220D01*
X126989079Y-100606220D01*
X126989338Y-100599064D01*
X127011281Y-100538096D01*
X127038979Y-100504497D01*
X127096405Y-100466966D01*
X127164527Y-100448006D01*
X127234947Y-100449507D01*
X127299267Y-100473355D01*
X127313426Y-100482513D01*
X127345904Y-100510849D01*
X127368116Y-100546695D01*
X127381804Y-100595384D01*
X127388715Y-100662249D01*
X127389628Y-100706247D01*
X127390590Y-100752622D01*
X127390307Y-100791305D01*
G36*
X128217495Y-100446220D02*
G01*
X128248599Y-100454121D01*
X128277559Y-100473817D01*
X128314831Y-100510484D01*
X128338801Y-100536378D01*
X128363770Y-100569997D01*
X128375031Y-100601506D01*
X128377657Y-100641485D01*
X128377657Y-100706917D01*
X128333035Y-100683842D01*
X128297673Y-100655724D01*
X128273451Y-100617848D01*
X128269291Y-100607551D01*
X128237594Y-100567637D01*
X128193554Y-100547624D01*
X128145531Y-100549572D01*
X128101886Y-100575543D01*
X128083420Y-100596635D01*
X128072663Y-100623619D01*
X128084178Y-100647634D01*
X128119981Y-100671791D01*
X128182090Y-100699199D01*
X128191515Y-100702985D01*
X128248058Y-100727759D01*
X128296580Y-100752189D01*
X128327451Y-100771486D01*
X128358371Y-100805953D01*
X128378927Y-100860957D01*
X128376744Y-100919983D01*
X128352424Y-100975845D01*
X128306568Y-101021355D01*
X128269438Y-101040727D01*
X128197711Y-101054292D01*
X128157852Y-101052462D01*
X128120953Y-101042568D01*
X128106797Y-101021806D01*
X128112091Y-100987613D01*
X128113631Y-100983092D01*
X128125842Y-100959116D01*
X128146174Y-100950042D01*
X128184908Y-100950649D01*
X128212257Y-100951474D01*
X128244257Y-100944392D01*
X128266182Y-100923219D01*
X128278670Y-100897152D01*
X128280062Y-100869845D01*
X128279998Y-100869685D01*
X128263807Y-100854930D01*
X128229155Y-100833457D01*
X128184321Y-100809458D01*
X128137582Y-100787125D01*
X128097217Y-100770652D01*
X128071504Y-100764229D01*
X128067679Y-100770518D01*
X128062864Y-100800115D01*
X128059566Y-100848447D01*
X128058343Y-100909372D01*
X128058058Y-100951542D01*
X128056718Y-101004653D01*
X128054528Y-101041025D01*
X128051769Y-101054514D01*
X128037344Y-101049981D01*
X128008226Y-101037670D01*
X127971257Y-101020826D01*
X127971257Y-100804721D01*
X127971493Y-100749327D01*
X127973729Y-100665207D01*
X127979423Y-100602800D01*
X127989903Y-100557358D01*
X128006497Y-100524133D01*
X128030531Y-100498378D01*
X128063333Y-100475344D01*
X128105124Y-100456335D01*
X128182287Y-100444914D01*
X128217495Y-100446220D01*
G37*
X128217495Y-100446220D02*
X128248599Y-100454121D01*
X128277559Y-100473817D01*
X128314831Y-100510484D01*
X128338801Y-100536378D01*
X128363770Y-100569997D01*
X128375031Y-100601506D01*
X128377657Y-100641485D01*
X128377657Y-100706917D01*
X128333035Y-100683842D01*
X128297673Y-100655724D01*
X128273451Y-100617848D01*
X128269291Y-100607551D01*
X128237594Y-100567637D01*
X128193554Y-100547624D01*
X128145531Y-100549572D01*
X128101886Y-100575543D01*
X128083420Y-100596635D01*
X128072663Y-100623619D01*
X128084178Y-100647634D01*
X128119981Y-100671791D01*
X128182090Y-100699199D01*
X128191515Y-100702985D01*
X128248058Y-100727759D01*
X128296580Y-100752189D01*
X128327451Y-100771486D01*
X128358371Y-100805953D01*
X128378927Y-100860957D01*
X128376744Y-100919983D01*
X128352424Y-100975845D01*
X128306568Y-101021355D01*
X128269438Y-101040727D01*
X128197711Y-101054292D01*
X128157852Y-101052462D01*
X128120953Y-101042568D01*
X128106797Y-101021806D01*
X128112091Y-100987613D01*
X128113631Y-100983092D01*
X128125842Y-100959116D01*
X128146174Y-100950042D01*
X128184908Y-100950649D01*
X128212257Y-100951474D01*
X128244257Y-100944392D01*
X128266182Y-100923219D01*
X128278670Y-100897152D01*
X128280062Y-100869845D01*
X128279998Y-100869685D01*
X128263807Y-100854930D01*
X128229155Y-100833457D01*
X128184321Y-100809458D01*
X128137582Y-100787125D01*
X128097217Y-100770652D01*
X128071504Y-100764229D01*
X128067679Y-100770518D01*
X128062864Y-100800115D01*
X128059566Y-100848447D01*
X128058343Y-100909372D01*
X128058058Y-100951542D01*
X128056718Y-101004653D01*
X128054528Y-101041025D01*
X128051769Y-101054514D01*
X128037344Y-101049981D01*
X128008226Y-101037670D01*
X127971257Y-101020826D01*
X127971257Y-100804721D01*
X127971493Y-100749327D01*
X127973729Y-100665207D01*
X127979423Y-100602800D01*
X127989903Y-100557358D01*
X128006497Y-100524133D01*
X128030531Y-100498378D01*
X128063333Y-100475344D01*
X128105124Y-100456335D01*
X128182287Y-100444914D01*
X128217495Y-100446220D01*
G36*
X129479537Y-100806313D02*
G01*
X129471345Y-100883462D01*
X129453519Y-100941276D01*
X129423975Y-100985422D01*
X129380625Y-101021568D01*
X129339332Y-101042463D01*
X129269987Y-101054090D01*
X129200736Y-101041377D01*
X129138145Y-101005945D01*
X129088779Y-100949418D01*
X129082818Y-100938995D01*
X129074945Y-100920733D01*
X129069106Y-100897429D01*
X129064999Y-100865085D01*
X129062325Y-100819704D01*
X129060781Y-100757287D01*
X129060734Y-100751748D01*
X129161429Y-100751748D01*
X129161772Y-100804577D01*
X129163942Y-100852362D01*
X129169307Y-100883209D01*
X129179217Y-100903935D01*
X129195021Y-100921356D01*
X129198724Y-100924705D01*
X129246299Y-100949419D01*
X129296635Y-100946890D01*
X129343517Y-100917288D01*
X129357477Y-100901953D01*
X129369160Y-100881622D01*
X129375686Y-100853514D01*
X129378524Y-100810550D01*
X129379143Y-100745647D01*
X129378837Y-100696122D01*
X129376722Y-100647782D01*
X129371390Y-100616587D01*
X129361460Y-100595647D01*
X129345550Y-100578073D01*
X129336204Y-100570159D01*
X129287776Y-100548843D01*
X129237040Y-100552198D01*
X129192987Y-100580107D01*
X129183504Y-100591173D01*
X129171939Y-100612009D01*
X129165252Y-100641106D01*
X129162173Y-100685381D01*
X129161429Y-100751748D01*
X129060734Y-100751748D01*
X129060067Y-100673837D01*
X129059883Y-100565358D01*
X129059829Y-100228601D01*
X129107000Y-100248362D01*
X129119472Y-100253770D01*
X129139324Y-100265985D01*
X129150687Y-100284482D01*
X129156933Y-100316829D01*
X129161429Y-100370593D01*
X129165535Y-100418866D01*
X129170963Y-100450557D01*
X129178739Y-100462383D01*
X129190457Y-100459212D01*
X129220318Y-100448067D01*
X129273684Y-100445304D01*
X129331093Y-100455625D01*
X129380625Y-100477861D01*
X129407876Y-100498443D01*
X129442865Y-100538600D01*
X129465274Y-100590086D01*
X129477190Y-100658568D01*
X129480542Y-100745647D01*
X129480698Y-100749714D01*
X129479537Y-100806313D01*
G37*
X129479537Y-100806313D02*
X129471345Y-100883462D01*
X129453519Y-100941276D01*
X129423975Y-100985422D01*
X129380625Y-101021568D01*
X129339332Y-101042463D01*
X129269987Y-101054090D01*
X129200736Y-101041377D01*
X129138145Y-101005945D01*
X129088779Y-100949418D01*
X129082818Y-100938995D01*
X129074945Y-100920733D01*
X129069106Y-100897429D01*
X129064999Y-100865085D01*
X129062325Y-100819704D01*
X129060781Y-100757287D01*
X129060734Y-100751748D01*
X129161429Y-100751748D01*
X129161772Y-100804577D01*
X129163942Y-100852362D01*
X129169307Y-100883209D01*
X129179217Y-100903935D01*
X129195021Y-100921356D01*
X129198724Y-100924705D01*
X129246299Y-100949419D01*
X129296635Y-100946890D01*
X129343517Y-100917288D01*
X129357477Y-100901953D01*
X129369160Y-100881622D01*
X129375686Y-100853514D01*
X129378524Y-100810550D01*
X129379143Y-100745647D01*
X129378837Y-100696122D01*
X129376722Y-100647782D01*
X129371390Y-100616587D01*
X129361460Y-100595647D01*
X129345550Y-100578073D01*
X129336204Y-100570159D01*
X129287776Y-100548843D01*
X129237040Y-100552198D01*
X129192987Y-100580107D01*
X129183504Y-100591173D01*
X129171939Y-100612009D01*
X129165252Y-100641106D01*
X129162173Y-100685381D01*
X129161429Y-100751748D01*
X129060734Y-100751748D01*
X129060067Y-100673837D01*
X129059883Y-100565358D01*
X129059829Y-100228601D01*
X129107000Y-100248362D01*
X129119472Y-100253770D01*
X129139324Y-100265985D01*
X129150687Y-100284482D01*
X129156933Y-100316829D01*
X129161429Y-100370593D01*
X129165535Y-100418866D01*
X129170963Y-100450557D01*
X129178739Y-100462383D01*
X129190457Y-100459212D01*
X129220318Y-100448067D01*
X129273684Y-100445304D01*
X129331093Y-100455625D01*
X129380625Y-100477861D01*
X129407876Y-100498443D01*
X129442865Y-100538600D01*
X129465274Y-100590086D01*
X129477190Y-100658568D01*
X129480542Y-100745647D01*
X129480698Y-100749714D01*
X129479537Y-100806313D01*
G36*
X128903941Y-100449282D02*
G01*
X128935774Y-100461758D01*
X128972743Y-100478602D01*
X128972743Y-100965196D01*
X128926812Y-101011127D01*
X128916320Y-101021427D01*
X128887255Y-101044320D01*
X128857943Y-101051735D01*
X128814326Y-101048321D01*
X128796568Y-101046114D01*
X128750767Y-101041445D01*
X128718743Y-101039585D01*
X128709244Y-101039869D01*
X128670274Y-101042948D01*
X128623160Y-101048321D01*
X128608085Y-101050168D01*
X128570110Y-101050893D01*
X128542325Y-101039429D01*
X128510674Y-101011127D01*
X128464743Y-100965196D01*
X128464743Y-100705055D01*
X128465101Y-100628180D01*
X128466216Y-100554886D01*
X128467952Y-100496850D01*
X128470167Y-100458663D01*
X128472721Y-100444914D01*
X128473256Y-100444951D01*
X128491808Y-100451793D01*
X128523153Y-100466868D01*
X128565608Y-100488822D01*
X128569604Y-100717240D01*
X128573600Y-100945657D01*
X128660686Y-100945657D01*
X128664657Y-100695286D01*
X128665916Y-100627227D01*
X128667718Y-100554482D01*
X128669671Y-100496730D01*
X128671612Y-100458648D01*
X128673377Y-100444914D01*
X128673885Y-100444962D01*
X128691482Y-100450015D01*
X128723834Y-100460849D01*
X128769543Y-100476783D01*
X128769765Y-100696706D01*
X128769988Y-100734909D01*
X128771531Y-100809146D01*
X128774292Y-100871145D01*
X128777977Y-100915308D01*
X128782292Y-100936041D01*
X128797732Y-100947131D01*
X128829241Y-100950556D01*
X128863886Y-100945657D01*
X128867857Y-100695286D01*
X128869278Y-100631663D01*
X128872225Y-100556356D01*
X128876079Y-100497286D01*
X128880542Y-100458718D01*
X128885317Y-100444914D01*
X128903941Y-100449282D01*
G37*
X128903941Y-100449282D02*
X128935774Y-100461758D01*
X128972743Y-100478602D01*
X128972743Y-100965196D01*
X128926812Y-101011127D01*
X128916320Y-101021427D01*
X128887255Y-101044320D01*
X128857943Y-101051735D01*
X128814326Y-101048321D01*
X128796568Y-101046114D01*
X128750767Y-101041445D01*
X128718743Y-101039585D01*
X128709244Y-101039869D01*
X128670274Y-101042948D01*
X128623160Y-101048321D01*
X128608085Y-101050168D01*
X128570110Y-101050893D01*
X128542325Y-101039429D01*
X128510674Y-101011127D01*
X128464743Y-100965196D01*
X128464743Y-100705055D01*
X128465101Y-100628180D01*
X128466216Y-100554886D01*
X128467952Y-100496850D01*
X128470167Y-100458663D01*
X128472721Y-100444914D01*
X128473256Y-100444951D01*
X128491808Y-100451793D01*
X128523153Y-100466868D01*
X128565608Y-100488822D01*
X128569604Y-100717240D01*
X128573600Y-100945657D01*
X128660686Y-100945657D01*
X128664657Y-100695286D01*
X128665916Y-100627227D01*
X128667718Y-100554482D01*
X128669671Y-100496730D01*
X128671612Y-100458648D01*
X128673377Y-100444914D01*
X128673885Y-100444962D01*
X128691482Y-100450015D01*
X128723834Y-100460849D01*
X128769543Y-100476783D01*
X128769765Y-100696706D01*
X128769988Y-100734909D01*
X128771531Y-100809146D01*
X128774292Y-100871145D01*
X128777977Y-100915308D01*
X128782292Y-100936041D01*
X128797732Y-100947131D01*
X128829241Y-100950556D01*
X128863886Y-100945657D01*
X128867857Y-100695286D01*
X128869278Y-100631663D01*
X128872225Y-100556356D01*
X128876079Y-100497286D01*
X128880542Y-100458718D01*
X128885317Y-100444914D01*
X128903941Y-100449282D01*
G36*
X130928543Y-100249444D02*
G01*
X130975714Y-100269342D01*
X130975714Y-100666509D01*
X130975519Y-100769498D01*
X130974998Y-100862141D01*
X130974199Y-100940700D01*
X130973172Y-101001439D01*
X130971963Y-101040623D01*
X130970623Y-101054514D01*
X130970099Y-101054468D01*
X130952287Y-101049420D01*
X130919823Y-101038580D01*
X130874114Y-101022646D01*
X130874114Y-100818173D01*
X130873824Y-100737832D01*
X130872474Y-100679562D01*
X130869369Y-100639909D01*
X130863812Y-100613618D01*
X130855107Y-100595436D01*
X130842556Y-100580107D01*
X130833999Y-100571955D01*
X130787728Y-100549375D01*
X130736728Y-100551375D01*
X130689993Y-100578073D01*
X130683189Y-100584698D01*
X130672293Y-100598456D01*
X130664836Y-100616642D01*
X130660169Y-100644177D01*
X130657642Y-100685981D01*
X130656602Y-100746973D01*
X130656400Y-100832073D01*
X130656303Y-100875234D01*
X130655674Y-100946224D01*
X130654556Y-101003076D01*
X130653063Y-101040828D01*
X130651309Y-101054514D01*
X130650785Y-101054468D01*
X130632973Y-101049420D01*
X130600509Y-101038580D01*
X130554800Y-101022646D01*
X130554823Y-100817237D01*
X130554857Y-100798951D01*
X130556778Y-100703626D01*
X130562678Y-100631543D01*
X130574001Y-100577813D01*
X130592187Y-100537549D01*
X130618679Y-100505861D01*
X130654918Y-100477861D01*
X130690263Y-100460333D01*
X130746773Y-100446785D01*
X130802356Y-100446015D01*
X130845086Y-100459195D01*
X130848298Y-100461015D01*
X130858205Y-100460820D01*
X130864975Y-100445572D01*
X130869861Y-100410613D01*
X130874114Y-100351289D01*
X130881371Y-100229547D01*
X130928543Y-100249444D01*
G37*
X130928543Y-100249444D02*
X130975714Y-100269342D01*
X130975714Y-100666509D01*
X130975519Y-100769498D01*
X130974998Y-100862141D01*
X130974199Y-100940700D01*
X130973172Y-101001439D01*
X130971963Y-101040623D01*
X130970623Y-101054514D01*
X130970099Y-101054468D01*
X130952287Y-101049420D01*
X130919823Y-101038580D01*
X130874114Y-101022646D01*
X130874114Y-100818173D01*
X130873824Y-100737832D01*
X130872474Y-100679562D01*
X130869369Y-100639909D01*
X130863812Y-100613618D01*
X130855107Y-100595436D01*
X130842556Y-100580107D01*
X130833999Y-100571955D01*
X130787728Y-100549375D01*
X130736728Y-100551375D01*
X130689993Y-100578073D01*
X130683189Y-100584698D01*
X130672293Y-100598456D01*
X130664836Y-100616642D01*
X130660169Y-100644177D01*
X130657642Y-100685981D01*
X130656602Y-100746973D01*
X130656400Y-100832073D01*
X130656303Y-100875234D01*
X130655674Y-100946224D01*
X130654556Y-101003076D01*
X130653063Y-101040828D01*
X130651309Y-101054514D01*
X130650785Y-101054468D01*
X130632973Y-101049420D01*
X130600509Y-101038580D01*
X130554800Y-101022646D01*
X130554823Y-100817237D01*
X130554857Y-100798951D01*
X130556778Y-100703626D01*
X130562678Y-100631543D01*
X130574001Y-100577813D01*
X130592187Y-100537549D01*
X130618679Y-100505861D01*
X130654918Y-100477861D01*
X130690263Y-100460333D01*
X130746773Y-100446785D01*
X130802356Y-100446015D01*
X130845086Y-100459195D01*
X130848298Y-100461015D01*
X130858205Y-100460820D01*
X130864975Y-100445572D01*
X130869861Y-100410613D01*
X130874114Y-100351289D01*
X130881371Y-100229547D01*
X130928543Y-100249444D01*
G36*
X131681020Y-100417822D02*
G01*
X131748810Y-100449680D01*
X131804366Y-100504770D01*
X131815881Y-100522016D01*
X131825432Y-100541562D01*
X131832206Y-100566198D01*
X131836819Y-100600711D01*
X131839888Y-100649889D01*
X131842029Y-100718519D01*
X131843859Y-100811389D01*
X131848404Y-101069007D01*
X131810225Y-101054491D01*
X131775268Y-101041156D01*
X131749097Y-101028323D01*
X131732013Y-101011780D01*
X131722086Y-100986465D01*
X131717386Y-100947316D01*
X131715982Y-100889268D01*
X131715943Y-100807261D01*
X131715744Y-100741895D01*
X131714559Y-100679173D01*
X131711729Y-100636334D01*
X131706609Y-100608220D01*
X131698553Y-100589675D01*
X131686914Y-100575543D01*
X131658303Y-100555600D01*
X131610239Y-100548083D01*
X131562688Y-100567079D01*
X131559550Y-100569511D01*
X131549769Y-100580748D01*
X131542553Y-100598770D01*
X131537299Y-100628026D01*
X131533402Y-100672962D01*
X131530256Y-100738028D01*
X131527257Y-100827670D01*
X131520000Y-101067697D01*
X131458314Y-101040044D01*
X131396629Y-101012391D01*
X131396629Y-100793246D01*
X131396884Y-100733711D01*
X131399086Y-100650892D01*
X131404661Y-100589227D01*
X131414941Y-100543748D01*
X131431258Y-100509484D01*
X131454943Y-100481466D01*
X131487328Y-100454723D01*
X131533907Y-100427780D01*
X131607287Y-100410191D01*
X131681020Y-100417822D01*
G37*
X131681020Y-100417822D02*
X131748810Y-100449680D01*
X131804366Y-100504770D01*
X131815881Y-100522016D01*
X131825432Y-100541562D01*
X131832206Y-100566198D01*
X131836819Y-100600711D01*
X131839888Y-100649889D01*
X131842029Y-100718519D01*
X131843859Y-100811389D01*
X131848404Y-101069007D01*
X131810225Y-101054491D01*
X131775268Y-101041156D01*
X131749097Y-101028323D01*
X131732013Y-101011780D01*
X131722086Y-100986465D01*
X131717386Y-100947316D01*
X131715982Y-100889268D01*
X131715943Y-100807261D01*
X131715744Y-100741895D01*
X131714559Y-100679173D01*
X131711729Y-100636334D01*
X131706609Y-100608220D01*
X131698553Y-100589675D01*
X131686914Y-100575543D01*
X131658303Y-100555600D01*
X131610239Y-100548083D01*
X131562688Y-100567079D01*
X131559550Y-100569511D01*
X131549769Y-100580748D01*
X131542553Y-100598770D01*
X131537299Y-100628026D01*
X131533402Y-100672962D01*
X131530256Y-100738028D01*
X131527257Y-100827670D01*
X131520000Y-101067697D01*
X131458314Y-101040044D01*
X131396629Y-101012391D01*
X131396629Y-100793246D01*
X131396884Y-100733711D01*
X131399086Y-100650892D01*
X131404661Y-100589227D01*
X131414941Y-100543748D01*
X131431258Y-100509484D01*
X131454943Y-100481466D01*
X131487328Y-100454723D01*
X131533907Y-100427780D01*
X131607287Y-100410191D01*
X131681020Y-100417822D01*
G36*
X132961252Y-100913000D02*
G01*
X132961651Y-100945339D01*
X132962929Y-101053455D01*
X132963185Y-101136186D01*
X132961634Y-101196426D01*
X132957490Y-101237073D01*
X132949964Y-101261023D01*
X132938271Y-101271171D01*
X132921624Y-101270414D01*
X132899236Y-101261648D01*
X132870321Y-101247769D01*
X132864142Y-101244808D01*
X132838413Y-101230311D01*
X132824976Y-101213065D01*
X132819834Y-101184308D01*
X132818990Y-101135283D01*
X132818952Y-101047257D01*
X132728276Y-101047257D01*
X132672498Y-101044815D01*
X132628640Y-101034908D01*
X132592218Y-101014886D01*
X132589503Y-101012929D01*
X132552546Y-100979869D01*
X132526826Y-100939931D01*
X132510606Y-100887657D01*
X132502148Y-100817588D01*
X132500083Y-100738430D01*
X132644857Y-100738430D01*
X132644882Y-100751697D01*
X132646261Y-100811584D01*
X132650687Y-100850732D01*
X132659461Y-100876153D01*
X132673886Y-100894857D01*
X132674784Y-100895750D01*
X132710237Y-100919952D01*
X132744596Y-100917567D01*
X132783403Y-100888260D01*
X132792895Y-100878244D01*
X132806876Y-100857708D01*
X132814760Y-100830997D01*
X132818245Y-100790499D01*
X132819029Y-100728603D01*
X132818350Y-100691130D01*
X132810983Y-100622980D01*
X132794168Y-100578330D01*
X132766234Y-100553926D01*
X132725509Y-100546514D01*
X132708350Y-100548094D01*
X132678660Y-100563766D01*
X132659031Y-100598691D01*
X132648188Y-100655901D01*
X132644857Y-100738430D01*
X132500083Y-100738430D01*
X132499714Y-100724267D01*
X132500253Y-100656169D01*
X132502707Y-100604587D01*
X132508158Y-100568816D01*
X132517686Y-100542015D01*
X132532371Y-100517338D01*
X132545852Y-100498480D01*
X132594799Y-100447568D01*
X132650256Y-100419918D01*
X132719928Y-100411165D01*
X132799664Y-100419890D01*
X132868595Y-100451185D01*
X132923113Y-100506381D01*
X132927223Y-100512224D01*
X132936808Y-100527753D01*
X132944151Y-100545498D01*
X132949612Y-100569290D01*
X132953550Y-100602958D01*
X132956323Y-100650333D01*
X132958292Y-100715245D01*
X132958528Y-100728603D01*
X132959815Y-100801524D01*
X132961252Y-100913000D01*
G37*
X132961252Y-100913000D02*
X132961651Y-100945339D01*
X132962929Y-101053455D01*
X132963185Y-101136186D01*
X132961634Y-101196426D01*
X132957490Y-101237073D01*
X132949964Y-101261023D01*
X132938271Y-101271171D01*
X132921624Y-101270414D01*
X132899236Y-101261648D01*
X132870321Y-101247769D01*
X132864142Y-101244808D01*
X132838413Y-101230311D01*
X132824976Y-101213065D01*
X132819834Y-101184308D01*
X132818990Y-101135283D01*
X132818952Y-101047257D01*
X132728276Y-101047257D01*
X132672498Y-101044815D01*
X132628640Y-101034908D01*
X132592218Y-101014886D01*
X132589503Y-101012929D01*
X132552546Y-100979869D01*
X132526826Y-100939931D01*
X132510606Y-100887657D01*
X132502148Y-100817588D01*
X132500083Y-100738430D01*
X132644857Y-100738430D01*
X132644882Y-100751697D01*
X132646261Y-100811584D01*
X132650687Y-100850732D01*
X132659461Y-100876153D01*
X132673886Y-100894857D01*
X132674784Y-100895750D01*
X132710237Y-100919952D01*
X132744596Y-100917567D01*
X132783403Y-100888260D01*
X132792895Y-100878244D01*
X132806876Y-100857708D01*
X132814760Y-100830997D01*
X132818245Y-100790499D01*
X132819029Y-100728603D01*
X132818350Y-100691130D01*
X132810983Y-100622980D01*
X132794168Y-100578330D01*
X132766234Y-100553926D01*
X132725509Y-100546514D01*
X132708350Y-100548094D01*
X132678660Y-100563766D01*
X132659031Y-100598691D01*
X132648188Y-100655901D01*
X132644857Y-100738430D01*
X132500083Y-100738430D01*
X132499714Y-100724267D01*
X132500253Y-100656169D01*
X132502707Y-100604587D01*
X132508158Y-100568816D01*
X132517686Y-100542015D01*
X132532371Y-100517338D01*
X132545852Y-100498480D01*
X132594799Y-100447568D01*
X132650256Y-100419918D01*
X132719928Y-100411165D01*
X132799664Y-100419890D01*
X132868595Y-100451185D01*
X132923113Y-100506381D01*
X132927223Y-100512224D01*
X132936808Y-100527753D01*
X132944151Y-100545498D01*
X132949612Y-100569290D01*
X132953550Y-100602958D01*
X132956323Y-100650333D01*
X132958292Y-100715245D01*
X132958528Y-100728603D01*
X132959815Y-100801524D01*
X132961252Y-100913000D01*
G36*
X127732829Y-100451097D02*
G01*
X127792753Y-100473355D01*
X127817673Y-100490080D01*
X127842910Y-100514043D01*
X127860912Y-100544526D01*
X127872858Y-100586023D01*
X127879930Y-100643032D01*
X127883308Y-100720047D01*
X127884171Y-100821565D01*
X127884002Y-100874027D01*
X127883153Y-100945715D01*
X127881711Y-101002925D01*
X127879814Y-101040809D01*
X127877597Y-101054514D01*
X127863172Y-101049981D01*
X127834054Y-101037670D01*
X127833181Y-101037272D01*
X127818060Y-101029356D01*
X127807891Y-101018495D01*
X127801691Y-100999471D01*
X127798478Y-100967069D01*
X127797270Y-100916071D01*
X127797086Y-100841261D01*
X127796714Y-100793804D01*
X127792750Y-100704615D01*
X127783673Y-100639287D01*
X127768524Y-100594393D01*
X127746345Y-100566507D01*
X127716175Y-100552203D01*
X127711990Y-100551206D01*
X127655480Y-100550427D01*
X127611410Y-100575744D01*
X127580972Y-100626502D01*
X127575544Y-100641175D01*
X127563171Y-100673649D01*
X127556905Y-100688572D01*
X127544036Y-100686516D01*
X127515933Y-100675357D01*
X127489721Y-100656927D01*
X127477771Y-100622098D01*
X127481336Y-100597151D01*
X127503235Y-100546547D01*
X127538644Y-100499128D01*
X127580052Y-100466334D01*
X127597400Y-100458752D01*
X127663089Y-100446076D01*
X127732829Y-100451097D01*
G37*
X127732829Y-100451097D02*
X127792753Y-100473355D01*
X127817673Y-100490080D01*
X127842910Y-100514043D01*
X127860912Y-100544526D01*
X127872858Y-100586023D01*
X127879930Y-100643032D01*
X127883308Y-100720047D01*
X127884171Y-100821565D01*
X127884002Y-100874027D01*
X127883153Y-100945715D01*
X127881711Y-101002925D01*
X127879814Y-101040809D01*
X127877597Y-101054514D01*
X127863172Y-101049981D01*
X127834054Y-101037670D01*
X127833181Y-101037272D01*
X127818060Y-101029356D01*
X127807891Y-101018495D01*
X127801691Y-100999471D01*
X127798478Y-100967069D01*
X127797270Y-100916071D01*
X127797086Y-100841261D01*
X127796714Y-100793804D01*
X127792750Y-100704615D01*
X127783673Y-100639287D01*
X127768524Y-100594393D01*
X127746345Y-100566507D01*
X127716175Y-100552203D01*
X127711990Y-100551206D01*
X127655480Y-100550427D01*
X127611410Y-100575744D01*
X127580972Y-100626502D01*
X127575544Y-100641175D01*
X127563171Y-100673649D01*
X127556905Y-100688572D01*
X127544036Y-100686516D01*
X127515933Y-100675357D01*
X127489721Y-100656927D01*
X127477771Y-100622098D01*
X127481336Y-100597151D01*
X127503235Y-100546547D01*
X127538644Y-100499128D01*
X127580052Y-100466334D01*
X127597400Y-100458752D01*
X127663089Y-100446076D01*
X127732829Y-100451097D01*
G36*
X129857691Y-100466467D02*
G01*
X129862273Y-100469003D01*
X129899704Y-100498057D01*
X129933170Y-100535410D01*
X129939007Y-100543852D01*
X129950165Y-100563553D01*
X129958136Y-100586935D01*
X129963618Y-100619067D01*
X129967307Y-100665019D01*
X129969899Y-100729859D01*
X129972092Y-100818657D01*
X129972402Y-100833669D01*
X129973400Y-100930999D01*
X129971994Y-100999934D01*
X129968164Y-101040948D01*
X129961889Y-101054514D01*
X129942898Y-101050452D01*
X129910638Y-101038144D01*
X129903041Y-101034545D01*
X129891176Y-101026398D01*
X129882994Y-101013004D01*
X129877643Y-100989608D01*
X129874269Y-100951455D01*
X129872019Y-100893790D01*
X129870040Y-100811857D01*
X129869498Y-100787907D01*
X129867403Y-100712266D01*
X129864683Y-100659328D01*
X129860515Y-100624075D01*
X129854079Y-100601487D01*
X129844550Y-100586544D01*
X129831106Y-100574227D01*
X129791305Y-100552634D01*
X129742341Y-100548476D01*
X129698529Y-100564999D01*
X129667008Y-100599210D01*
X129654914Y-100648114D01*
X129654578Y-100661407D01*
X129647972Y-100685472D01*
X129628470Y-100689144D01*
X129590283Y-100674813D01*
X129581438Y-100670217D01*
X129557534Y-100643186D01*
X129557061Y-100602994D01*
X129579836Y-100547409D01*
X129600727Y-100517117D01*
X129654142Y-100474084D01*
X129720074Y-100449755D01*
X129790574Y-100446443D01*
X129857691Y-100466467D01*
G37*
X129857691Y-100466467D02*
X129862273Y-100469003D01*
X129899704Y-100498057D01*
X129933170Y-100535410D01*
X129939007Y-100543852D01*
X129950165Y-100563553D01*
X129958136Y-100586935D01*
X129963618Y-100619067D01*
X129967307Y-100665019D01*
X129969899Y-100729859D01*
X129972092Y-100818657D01*
X129972402Y-100833669D01*
X129973400Y-100930999D01*
X129971994Y-100999934D01*
X129968164Y-101040948D01*
X129961889Y-101054514D01*
X129942898Y-101050452D01*
X129910638Y-101038144D01*
X129903041Y-101034545D01*
X129891176Y-101026398D01*
X129882994Y-101013004D01*
X129877643Y-100989608D01*
X129874269Y-100951455D01*
X129872019Y-100893790D01*
X129870040Y-100811857D01*
X129869498Y-100787907D01*
X129867403Y-100712266D01*
X129864683Y-100659328D01*
X129860515Y-100624075D01*
X129854079Y-100601487D01*
X129844550Y-100586544D01*
X129831106Y-100574227D01*
X129791305Y-100552634D01*
X129742341Y-100548476D01*
X129698529Y-100564999D01*
X129667008Y-100599210D01*
X129654914Y-100648114D01*
X129654578Y-100661407D01*
X129647972Y-100685472D01*
X129628470Y-100689144D01*
X129590283Y-100674813D01*
X129581438Y-100670217D01*
X129557534Y-100643186D01*
X129557061Y-100602994D01*
X129579836Y-100547409D01*
X129600727Y-100517117D01*
X129654142Y-100474084D01*
X129720074Y-100449755D01*
X129790574Y-100446443D01*
X129857691Y-100466467D01*
G36*
X132407684Y-100804078D02*
G01*
X132405078Y-100827387D01*
X132385660Y-100910352D01*
X132350573Y-100973448D01*
X132297212Y-101021808D01*
X132294196Y-101023804D01*
X132226362Y-101052185D01*
X132155535Y-101054711D01*
X132087289Y-101033097D01*
X132027196Y-100989062D01*
X131980829Y-100924322D01*
X131980050Y-100922761D01*
X131964643Y-100882558D01*
X131953357Y-100836866D01*
X131947370Y-100793972D01*
X131947861Y-100762160D01*
X131956007Y-100749714D01*
X131963244Y-100750471D01*
X131997851Y-100764235D01*
X132037078Y-100789546D01*
X132070448Y-100818845D01*
X132087483Y-100844572D01*
X132105192Y-100879471D01*
X132141485Y-100911212D01*
X132183630Y-100923886D01*
X132199077Y-100920221D01*
X132229569Y-100901774D01*
X132256128Y-100876166D01*
X132267486Y-100852934D01*
X132267482Y-100852848D01*
X132254596Y-100842179D01*
X132220241Y-100822933D01*
X132169593Y-100797813D01*
X132107829Y-100769524D01*
X132107489Y-100769374D01*
X132040388Y-100739498D01*
X131995411Y-100717973D01*
X131968145Y-100701437D01*
X131954178Y-100686531D01*
X131949097Y-100669893D01*
X131948490Y-100648162D01*
X131952712Y-100607013D01*
X132096000Y-100607013D01*
X132110791Y-100619949D01*
X132147644Y-100639333D01*
X132148725Y-100639881D01*
X132192205Y-100660587D01*
X132231102Y-100677105D01*
X132255778Y-100684093D01*
X132265676Y-100674753D01*
X132267486Y-100642748D01*
X132259966Y-100602915D01*
X132233897Y-100566717D01*
X132196154Y-100547950D01*
X132154077Y-100549845D01*
X132115005Y-100575632D01*
X132099647Y-100593451D01*
X132096000Y-100607013D01*
X131952712Y-100607013D01*
X131953833Y-100596086D01*
X131980251Y-100525335D01*
X132024473Y-100469735D01*
X132081697Y-100431239D01*
X132147120Y-100411797D01*
X132215937Y-100413359D01*
X132283347Y-100437878D01*
X132344544Y-100487302D01*
X132378450Y-100536212D01*
X132402806Y-100606027D01*
X132406767Y-100642748D01*
X132412299Y-100694055D01*
X132407684Y-100804078D01*
G37*
X132407684Y-100804078D02*
X132405078Y-100827387D01*
X132385660Y-100910352D01*
X132350573Y-100973448D01*
X132297212Y-101021808D01*
X132294196Y-101023804D01*
X132226362Y-101052185D01*
X132155535Y-101054711D01*
X132087289Y-101033097D01*
X132027196Y-100989062D01*
X131980829Y-100924322D01*
X131980050Y-100922761D01*
X131964643Y-100882558D01*
X131953357Y-100836866D01*
X131947370Y-100793972D01*
X131947861Y-100762160D01*
X131956007Y-100749714D01*
X131963244Y-100750471D01*
X131997851Y-100764235D01*
X132037078Y-100789546D01*
X132070448Y-100818845D01*
X132087483Y-100844572D01*
X132105192Y-100879471D01*
X132141485Y-100911212D01*
X132183630Y-100923886D01*
X132199077Y-100920221D01*
X132229569Y-100901774D01*
X132256128Y-100876166D01*
X132267486Y-100852934D01*
X132267482Y-100852848D01*
X132254596Y-100842179D01*
X132220241Y-100822933D01*
X132169593Y-100797813D01*
X132107829Y-100769524D01*
X132107489Y-100769374D01*
X132040388Y-100739498D01*
X131995411Y-100717973D01*
X131968145Y-100701437D01*
X131954178Y-100686531D01*
X131949097Y-100669893D01*
X131948490Y-100648162D01*
X131952712Y-100607013D01*
X132096000Y-100607013D01*
X132110791Y-100619949D01*
X132147644Y-100639333D01*
X132148725Y-100639881D01*
X132192205Y-100660587D01*
X132231102Y-100677105D01*
X132255778Y-100684093D01*
X132265676Y-100674753D01*
X132267486Y-100642748D01*
X132259966Y-100602915D01*
X132233897Y-100566717D01*
X132196154Y-100547950D01*
X132154077Y-100549845D01*
X132115005Y-100575632D01*
X132099647Y-100593451D01*
X132096000Y-100607013D01*
X131952712Y-100607013D01*
X131953833Y-100596086D01*
X131980251Y-100525335D01*
X132024473Y-100469735D01*
X132081697Y-100431239D01*
X132147120Y-100411797D01*
X132215937Y-100413359D01*
X132283347Y-100437878D01*
X132344544Y-100487302D01*
X132378450Y-100536212D01*
X132402806Y-100606027D01*
X132406767Y-100642748D01*
X132412299Y-100694055D01*
X132407684Y-100804078D01*
M02*
