M48
; DRILL file {KiCad (6.0.5)} date Tue Jun 14 23:06:28 2022
; FORMAT={-:-/ absolute / metric / decimal}
; #@! TF.CreationDate,2022-06-14T23:06:28-04:00
; #@! TF.GenerationSoftware,Kicad,Pcbnew,(6.0.5)
; #@! TF.FileFunction,Plated,1,2,PTH
FMAT,2
METRIC
; #@! TA.AperFunction,Plated,PTH,ViaDrill
T1C0.305
; #@! TA.AperFunction,Plated,PTH,ComponentDrill
T2C1.200
; #@! TA.AperFunction,Plated,PTH,ComponentDrill
T3C1.400
%
G90
G05
T1
X117.0Y-87.5
X118.75Y-87.5
X120.6Y-93.9
X120.6Y-95.2
X121.4Y-89.2
X123.75Y-86.75
X125.4Y-81.8
X125.8Y-88.5
X126.311Y-95.3
X126.6Y-97.9
X127.0Y-91.2
X127.25Y-84.0
X127.5Y-85.75
X127.9Y-93.7
X127.9Y-100.0
X128.0Y-80.5
X128.25Y-95.25
X128.8Y-93.8
X129.5Y-87.5
X129.75Y-86.0
X130.3Y-82.2
X131.25Y-100.0
X131.8Y-94.6
X132.0Y-85.7
X132.25Y-81.75
X132.25Y-84.0
X132.5Y-90.6
X133.25Y-100.5
X133.25Y-101.75
X133.3Y-89.8
X133.5Y-96.75
X134.3Y-91.4
X134.8Y-83.4
X135.0Y-89.25
X137.2Y-88.4
X137.25Y-93.5
X138.4Y-82.9
X139.5Y-93.5
X139.6Y-89.0
X140.75Y-83.25
X141.75Y-85.75
T2
X139.75Y-81.0
X141.75Y-81.0
T3
X117.92Y-90.5
X117.92Y-93.04
X123.0Y-90.5
X123.0Y-95.58
T3
G00X136.5Y-82.3
M15
G01X136.5Y-80.7
M16
G05
T0
M30
