%TF.GenerationSoftware,KiCad,Pcbnew,(6.0.5)*%
%TF.CreationDate,2022-06-14T23:06:24-04:00*%
%TF.ProjectId,1bp-m3,3162702d-6d33-42e6-9b69-6361645f7063,A*%
%TF.SameCoordinates,Original*%
%TF.FileFunction,Soldermask,Bot*%
%TF.FilePolarity,Negative*%
%FSLAX46Y46*%
G04 Gerber Fmt 4.6, Leading zero omitted, Abs format (unit mm)*
G04 Created by KiCad (PCBNEW (6.0.5)) date 2022-06-14 23:06:24*
%MOMM*%
%LPD*%
G01*
G04 APERTURE LIST*
%ADD10C,2.400000*%
%ADD11O,3.400000X2.200000*%
%ADD12O,1.900000X2.400000*%
%ADD13O,3.400000X3.900000*%
G04 APERTURE END LIST*
D10*
X123000000Y-93040000D03*
D11*
X117920000Y-90500000D03*
X123000000Y-90500000D03*
X117920000Y-93040000D03*
X123000000Y-95580000D03*
D12*
X141750000Y-81000000D03*
X139750000Y-81000000D03*
D13*
X136500000Y-81500000D03*
G36*
X140629307Y-80388719D02*
G01*
X140633312Y-80396496D01*
X140633453Y-80396848D01*
X140633805Y-80398046D01*
X140635298Y-80400371D01*
X140635393Y-80400536D01*
X140638200Y-80405985D01*
X140638706Y-80406010D01*
X140639306Y-80406610D01*
X140671400Y-80456570D01*
X140734391Y-80485354D01*
X140802948Y-80475511D01*
X140855451Y-80430036D01*
X140861576Y-80418191D01*
X140863260Y-80417112D01*
X140865037Y-80418031D01*
X140865189Y-80419904D01*
X140846385Y-80463357D01*
X140807193Y-80650960D01*
X140802000Y-80750048D01*
X140802000Y-81249895D01*
X140821374Y-81440623D01*
X140874379Y-81609767D01*
X140873943Y-81611719D01*
X140872035Y-81612317D01*
X140870693Y-81611281D01*
X140866688Y-81603504D01*
X140866547Y-81603152D01*
X140866195Y-81601954D01*
X140864702Y-81599629D01*
X140864607Y-81599464D01*
X140861800Y-81594015D01*
X140861294Y-81593990D01*
X140860694Y-81593390D01*
X140828600Y-81543430D01*
X140765609Y-81514646D01*
X140697052Y-81524489D01*
X140644549Y-81569964D01*
X140638424Y-81581809D01*
X140636740Y-81582888D01*
X140634963Y-81581969D01*
X140634811Y-81580096D01*
X140653615Y-81536643D01*
X140692807Y-81349040D01*
X140698000Y-81249952D01*
X140698000Y-80750104D01*
X140678626Y-80559377D01*
X140625621Y-80390233D01*
X140626057Y-80388281D01*
X140627965Y-80387683D01*
X140629307Y-80388719D01*
G37*
M02*
